<svg xmlns="http://www.w3.org/2000/svg" width="73.444" height="58.13" viewBox="0 0 73.444 58.13">
  <g id="Layer_x0020_1" opacity="0.56">
    <g id="_2432104000400" transform="translate(0 0)">
      <path id="Path_203" data-name="Path 203" d="M9.557,57.2c.183-8.227,4.463-15.935,4.647-24.162C-4.135,33.036.726,37.535.209,7.89.021-2.9,1.752.51,32.79.51l.029,29.766c-.451,4.215-1.463,3.469-3.869,6.354L9.557,57.2Z" transform="translate(40.626 0.003)" fill="#ef6331" fill-rule="evenodd"/>
      <path id="Path_204" data-name="Path 204" d="M657.026,38.327c0,2.088-19.661,23.629-23.232,26.021.189-8.5,4.647-15.838,4.647-24.162H625.43V7.66h31.6V38.327Z" transform="translate(-625.43 -7.147)" fill="#ef6331" fill-rule="evenodd"/>
      <path id="Path_205" data-name="Path 205" d="M348.735,854.88v.929l-1.085-.774Z" transform="translate(-298.552 -797.68)" fill="#ef6331" fill-rule="evenodd"/>
    </g>
  </g>
</svg>
