<svg xmlns="http://www.w3.org/2000/svg" width="73.445" height="58.129" viewBox="0 0 73.445 58.129">
  <g id="Layer_x0020_1" transform="translate(0)" opacity="0.56">
    <g id="_2432104000400" transform="translate(0 0)">
      <path id="Path_203" data-name="Path 203" d="M23.252,57.2c-.183-8.227-4.463-15.935-4.647-24.162,18.338,0,13.477,4.5,13.994-25.146C32.787-2.9,31.056.51.019.51L-.01,30.277c.451,4.215,1.463,3.469,3.869,6.354L23.251,57.2Z" transform="translate(0.01 0.003)" fill="#ef6331" fill-rule="evenodd"/>
      <path id="Path_204" data-name="Path 204" d="M625.43,38.327c0,2.088,19.661,23.629,23.233,26.021-.189-8.5-4.647-15.838-4.647-24.162h13.011V7.66h-31.6V38.327Z" transform="translate(-583.582 -7.147)" fill="#ef6331" fill-rule="evenodd"/>
      <path id="Path_205" data-name="Path 205" d="M347.65,854.88v.929l1.085-.774Z" transform="translate(-324.388 -797.68)" fill="#ef6331" fill-rule="evenodd"/>
    </g>
  </g>
</svg>
