<svg width="62" height="61" viewBox="0 0 62 61" fill="none" xmlns="http://www.w3.org/2000/svg">
<circle cx="31.1973" cy="30.5" r="30" fill="white" fill-opacity="0.85" stroke="#06979B"/>
<g clip-path="url(#clip0_218_4)">
<path d="M44.5618 44.856H16.8327C14.5524 44.856 12.6973 43.001 12.6973 40.7207V21.2795C12.6973 18.9992 14.5524 17.144 16.8327 17.144H44.5618C46.8421 17.144 48.6973 18.9992 48.6973 21.2795V28.9473C48.6973 29.5142 48.2376 29.9737 47.6709 29.9737C47.1042 29.9737 46.6446 29.5142 46.6446 28.9473V21.2795C46.6446 20.1311 45.7102 19.1967 44.5618 19.1967H16.8327C15.6843 19.1967 14.75 20.1311 14.75 21.2795V40.7207C14.75 41.8691 15.6843 42.8034 16.8327 42.8034H44.5618C45.7102 42.8034 46.6446 41.8691 46.6446 40.7207V35.4649C46.6446 34.898 47.1042 34.4385 47.6709 34.4385C48.2376 34.4385 48.6973 34.898 48.6973 35.4649V40.7207C48.6973 43.001 46.8421 44.856 44.5618 44.856Z" fill="#2D527C"/>
<path d="M28.3535 39.4161H18.0898V35.3965C18.0898 33.0819 19.9663 31.2056 22.2808 31.2056H24.1625C26.4771 31.2056 28.3534 33.082 28.3534 35.3965L28.3535 39.4161Z" fill="#CEE8FA"/>
<path d="M28.3535 40.4424H18.0898C17.523 40.4424 17.0635 39.9829 17.0635 39.4161V35.3965C17.0635 32.5196 19.404 30.1792 22.2809 30.1792H24.1625C27.0393 30.1792 29.3798 32.5197 29.3798 35.3965V39.4161C29.3798 39.9829 28.9203 40.4424 28.3535 40.4424ZM19.1162 38.3897H27.3271V35.3965C27.3271 33.6515 25.9075 32.2318 24.1625 32.2318H22.2809C20.5359 32.2318 19.1162 33.6515 19.1162 35.3965V38.3897Z" fill="#2D527C"/>
<path d="M23.2217 30.7952C25.4891 30.7952 27.3272 28.9571 27.3272 26.6897C27.3272 24.4223 25.4891 22.5842 23.2217 22.5842C20.9543 22.5842 19.1162 24.4223 19.1162 26.6897C19.1162 28.9571 20.9543 30.7952 23.2217 30.7952Z" fill="#CEE8FA"/>
<path d="M23.2217 31.8213C20.392 31.8213 18.0898 29.5191 18.0898 26.6894C18.0898 23.8598 20.392 21.5576 23.2217 21.5576C26.0513 21.5576 28.3535 23.8598 28.3535 26.6894C28.3535 29.5191 26.0514 31.8213 23.2217 31.8213ZM23.2217 23.6103C21.5238 23.6103 20.1425 24.9916 20.1425 26.6894C20.1425 28.3873 21.5238 29.7686 23.2217 29.7686C24.9195 29.7686 26.3008 28.3873 26.3008 26.6894C26.3008 24.9916 24.9195 23.6103 23.2217 23.6103Z" fill="#2D527C"/>
<path d="M35.0928 29.3235H30.9873C30.4205 29.3235 29.9609 28.864 29.9609 28.2972V24.1233C29.9609 23.5564 30.4206 23.0969 30.9873 23.0969H35.0928C35.6596 23.0969 36.1191 23.5564 36.1191 24.1233V28.2972C36.1191 28.864 35.6596 29.3235 35.0928 29.3235ZM32.0137 27.2707H34.0664V25.1496H32.0137V27.2707Z" fill="#2D527C"/>
<path d="M39.1982 29.3235H35.0928C34.526 29.3235 34.0664 28.864 34.0664 28.2972V24.1233C34.0664 23.5564 34.526 23.0969 35.0928 23.0969H39.1982C39.765 23.0969 40.2246 23.5564 40.2246 24.1233V28.2972C40.2246 28.864 39.765 29.3235 39.1982 29.3235ZM36.1191 27.2707H38.1718V25.1496H36.1191V27.2707Z" fill="#2D527C"/>
<path d="M43.3037 29.3235H39.1982C38.6314 29.3235 38.1719 28.864 38.1719 28.2972V24.1233C38.1719 23.5564 38.6315 23.0969 39.1982 23.0969H43.3037C43.8705 23.0969 44.3301 23.5564 44.3301 24.1233C44.3301 24.6901 43.8704 25.1496 43.3037 25.1496H40.2246V27.2708H43.3037C43.8705 27.2708 44.3301 27.7303 44.3301 28.2972C44.3301 28.864 43.8704 29.3235 43.3037 29.3235Z" fill="#2D527C"/>
<path d="M41.6109 34.0791H32.6816C32.1148 34.0791 31.6553 33.6196 31.6553 33.0527C31.6553 32.4859 32.1149 32.0264 32.6816 32.0264H41.6109C42.1777 32.0264 42.6372 32.4859 42.6372 33.0527C42.6372 33.6196 42.1777 34.0791 41.6109 34.0791Z" fill="#2D527C"/>
<path d="M41.6109 39.2109H32.6816C32.1148 39.2109 31.6553 38.7514 31.6553 38.1846C31.6553 37.6177 32.1149 37.1582 32.6816 37.1582H41.6109C42.1777 37.1582 42.6372 37.6177 42.6372 38.1846C42.6372 38.7514 42.1777 39.2109 41.6109 39.2109Z" fill="#2D527C"/>
</g>
<defs>
<clipPath id="clip0_218_4">
<rect width="36" height="36" fill="white" transform="translate(12.6973 13)"/>
</clipPath>
</defs>
</svg>
