<svg width="62" height="61" viewBox="0 0 62 61" fill="none" xmlns="http://www.w3.org/2000/svg">
<circle cx="31.1973" cy="30.5" r="30" fill="white" fill-opacity="0.85" stroke="#5E9942"/>
<path d="M33.214 46.331H18.6125C17.17 46.331 16 45.1798 16 43.7606V16.5904C16 15.1712 17.17 14.02 18.6125 14.02H43.2154C44.6579 14.02 45.8279 15.1712 45.8279 16.5904V31.8864L44.8262 31.2636C44.6819 31.169 41.1398 29.048 38.0945 32.1545C35.0892 35.2216 37.7499 38.1783 37.8621 38.2966L38.5432 39.0377L37.5816 39.3452C37.4373 39.3926 34.0073 40.5752 33.2941 45.779L33.214 46.331ZM18.6125 15.3052C17.8913 15.3052 17.3063 15.8808 17.3063 16.5904V43.7606C17.3063 44.4702 17.8913 45.0458 18.6125 45.0458H32.084C32.8133 40.9537 35.1213 39.1639 36.3715 38.4779C35.2976 36.8537 34.5042 33.9522 37.1568 31.2557C39.8736 28.4882 42.9669 29.119 44.5216 29.7103V16.5904C44.5216 15.8808 43.9366 15.3052 43.2154 15.3052H18.6125Z" fill="#1990A6"/>
<path d="M38.8076 21.3052H23.2204C21.7539 21.3052 21.7459 23.5523 23.2204 23.5523H38.8076C40.2741 23.5602 40.2741 21.3052 38.8076 21.3052ZM32.4044 28.898H23.3006C21.834 28.898 21.826 31.1451 23.3006 31.1451H32.3964C33.871 31.1451 33.871 28.898 32.4044 28.898ZM29.5755 36.483H23.0521C21.5856 36.483 21.5776 38.7301 23.0521 38.7301H29.5755C31.0501 38.7301 31.0501 36.483 29.5755 36.483Z" fill="#5E5E5E"/>
<path d="M41.3136 39.8156C41.3136 39.8156 38.1962 38.7275 39.0617 35.1085C39.1097 34.9035 39.1979 34.7064 39.3181 34.5329C39.9192 33.6578 42.0428 31.1741 45.553 33.3976C45.6491 33.4606 45.7373 33.5237 45.8174 33.6026C46.3543 34.1072 48.0934 36.0547 46.2742 38.5304C46.2742 38.5304 45.8094 39.2795 44.6394 39.6579C44.6394 39.6579 43.9742 40.0679 45.7212 40.3439C45.9296 40.3754 46.13 40.4385 46.3143 40.541C47.1878 41.0141 49.608 42.5279 49.9446 45.0667L49.9767 45.256C50.1289 46.1863 49.5118 47.0694 48.5742 47.2586C47.1958 47.5346 45.1442 47.8263 43.0366 47.7081C40.8888 47.5898 38.8052 47.3138 37.4348 47.1167C36.4171 46.9669 35.7279 45.9971 35.9603 45.0115C36.1847 44.0417 36.7376 42.8039 38.0118 41.6054C38.0439 41.5739 38.084 41.5423 38.124 41.5108C38.4205 41.2743 39.7268 40.2493 40.8728 39.997C41.0171 39.9496 41.1693 39.8945 41.3136 39.8156Z" fill="#5E5E5E"/>
</svg>
