<svg xmlns="http://www.w3.org/2000/svg" width="63" height="63" viewBox="0 0 63 63">
  <g id="Group_75340" data-name="Group 75340" transform="translate(0 0)">
    <g id="our_locatoin_" data-name="our locatoin ">
      <ellipse id="Ellipse_10363" data-name="Ellipse 10363" cx="30.964" cy="30.964" rx="30.964" ry="30.964" transform="matrix(1, -0.017, 0.017, 1, 0, 1.081)" fill="#13729b"/>
      <g id="Layer_x0020_1" transform="translate(11.009 10.562)">
        <g id="_486581072" transform="translate(0 0)">
          <rect id="_486581456" width="41.444" height="41.444" transform="translate(0 0)" fill="none"/>
        </g>
        <path id="Path_150690" data-name="Path 150690" d="M20.291,4.055A10.657,10.657,0,0,0,12.53.853a10.558,10.558,0,0,0-7.735,3.2,10.379,10.379,0,0,0-3.2,7.761A10.733,10.733,0,0,0,3.028,17.3c.051.077.127.18.2.308l9.093,14.036,9.657-14.216a10.7,10.7,0,0,0,1.511-5.609,10.578,10.578,0,0,0-3.2-7.761h0Z" transform="translate(7.921 4.664)" fill="#fff" fill-rule="evenodd"/>
        <path id="Path_150694" data-name="Path 150694" d="M7.789,1.859A4.856,4.856,0,0,0,4.074,3.4,5.044,5.044,0,0,0,2.538,7.111a5.147,5.147,0,0,0,1.536,3.74,5.049,5.049,0,0,0,3.715,1.536,5.247,5.247,0,0,0,5.276-5.276A5.046,5.046,0,0,0,11.528,3.4,4.946,4.946,0,0,0,7.789,1.86h0Z" transform="translate(12.662 9.702)" fill="#13729b" fill-rule="evenodd"/>
      </g>
    </g>
  </g>
</svg>
