<svg xmlns="http://www.w3.org/2000/svg" width="32.469" height="32.463" viewBox="0 0 32.469 32.463">
  <g id="Group_6578" data-name="Group 6578" transform="translate(-1871.431 -1497.429)">
    <path id="Icon_awesome-whatsapp" data-name="Icon awesome-whatsapp" d="M21.749,20.357c-.358-.182-2.136-1.055-2.468-1.172s-.573-.182-.814.182-.931,1.172-1.146,1.42-.423.274-.782.091a9.834,9.834,0,0,1-4.917-4.3c-.371-.638.371-.593,1.062-1.973a.67.67,0,0,0-.033-.632c-.091-.182-.814-1.96-1.114-2.683-.293-.7-.593-.606-.814-.619s-.449-.013-.69-.013a1.338,1.338,0,0,0-.964.449A4.06,4.06,0,0,0,7.8,14.124a7.078,7.078,0,0,0,1.472,3.738,16.144,16.144,0,0,0,6.174,5.458c2.293.99,3.191,1.075,4.338.905a3.7,3.7,0,0,0,2.436-1.719,3.022,3.022,0,0,0,.208-1.719C22.348,20.624,22.107,20.533,21.749,20.357Z" transform="translate(1873.047 1496.102)" fill="#ffce29" stroke="#000" stroke-width="0.8"/>
    <path id="Icon_awesome-whatsapp-2" data-name="Icon awesome-whatsapp" d="M26.782,6.827A15.614,15.614,0,0,0,2.215,25.664L0,33.75l8.276-2.173a15.562,15.562,0,0,0,7.46,1.9h.007A15.76,15.76,0,0,0,31.5,17.866,15.671,15.671,0,0,0,26.782,6.827ZM15.743,30.846a12.951,12.951,0,0,1-6.609-1.807l-.471-.281L3.755,30.045l1.308-4.788-.309-.492a13,13,0,1,1,24.11-6.9,13.119,13.119,0,0,1-13.12,12.98Z" transform="translate(1872 1495.579)" fill="#ef6331" stroke="#000" stroke-width="0.8"/>
  </g>
</svg>
