<svg xmlns="http://www.w3.org/2000/svg" width="31.469" height="40.182" viewBox="0 0 31.469 40.182">
  <g id="Layer_x0020_1" transform="translate(0)">
    <g id="_2126095478032" transform="translate(0 0)">
      <path id="Path_316" data-name="Path 316" d="M1876.416,1866.687c0-.549-.106-.841-.121-1.4a6.06,6.06,0,0,1,.014-1.388,4.7,4.7,0,0,1,1.3-2.723,5.278,5.278,0,0,1,1.172-.9,3.568,3.568,0,0,0,.424-.307,8.711,8.711,0,0,0,2.567-2.8c1.023-1.961.732-3.037.8-5.3.009-.307.061-.338.065-.667l0-2.321c0-.293-.055-.42-.054-.611a22.926,22.926,0,0,0-.171-3.069c-.071-.52-.121-.774-.629-.774-2.017,0-2.179,1.513-2.368,2.877l-.626,3.95c-.042.2-.037.355-.076.6-.122.763-.365-.281-2.221,1.683l-.936,1.138-.03.031c-1.548,1.54-4.587,3-5.39,4.309a3.269,3.269,0,0,0-.476,1.48,3.335,3.335,0,0,0,.049.59c.048,1.5-.008,3.668-.006,5.253,0,.908.663.607,1.276.676,1.133.127,2.289-.059,3.224.069a7.635,7.635,0,0,0,1.909-.014C1876.217,1867,1876.416,1866.834,1876.416,1866.687Z" transform="translate(-1851.961 -1826.966)" fill-rule="evenodd"/>
      <path id="Path_317" data-name="Path 317" d="M87.328,1847.786v.61a11.746,11.746,0,0,1-.028,1.379l.157,5.445a6.407,6.407,0,0,0,1.685,3.317,3.207,3.207,0,0,0,.469.507l1.226,1.031a7.463,7.463,0,0,1,1.787,1.446,5.685,5.685,0,0,1,.952,4.41c-.241,1.626.345,1.189,2.349,1.129,1.223-.036,1.762.051,3.055-.055,1.811-.15,1.021.719,1.215-5.74a3.809,3.809,0,0,0,.02-1.114,3.064,3.064,0,0,0-.872-1.689c-.914-1-3.433-2.263-4.985-3.8a7.968,7.968,0,0,1-.578-.7,5.116,5.116,0,0,0-2.072-1.709c-.609-.178-.441.005-.539-.742-.368-2.373-.178-7.079-3.107-7.079-.608,0-.566.809-.615,1.4l-.117,1.957Z" transform="translate(-86.474 -1826.976)" fill-rule="evenodd"/>
      <path id="Path_318" data-name="Path 318" d="M834.4,1357.894l1.874-1.641.037-.035.623-.6a2.672,2.672,0,0,1,.294-.281l2.121-2.2.579-.649a16.893,16.893,0,0,0,2.478-3.714c1.273-2.844-.229-6.858-3.925-6.858-2.551,0-3.465,2.3-4.023,2.347-.536.049-.74-.795-1.7-1.492a4.109,4.109,0,0,0-5.14.083,4.169,4.169,0,0,0-1.407,2.166c-.9,2.9.819,5.173,2.393,7.084l2.108,2.372a3.925,3.925,0,0,0,.435.428C832.053,1355.72,833.343,1357.1,834.4,1357.894Z" transform="translate(-818.663 -1329.947)" fill="#ef6331" stroke="#000" stroke-width="1" fill-rule="evenodd"/>
      <path id="Path_319" data-name="Path 319" d="M1993.194,1988.226a.565.565,0,0,1-.549-.488,3.939,3.939,0,0,1,1.021-1.785c1-.992,2-1.372,2.979-2.633.429-.553,1.062-1.17,1.062-1.927,0-.847-.954-.258-1.369.094a2.908,2.908,0,0,0-.651.691c-.153.192-.281.35-.427.549a5.383,5.383,0,0,1-.952.939l-3.832,2.755a4.172,4.172,0,0,0-.529.447,2.754,2.754,0,0,0-.535.868c-.129.407-.059,5.055-.059,5.858.365,0,.6.063,1.037.061l2.32,0c.4,0,.634.063,1.1.063a7.9,7.9,0,0,1,.017-2.545,5.452,5.452,0,0,1,2.131-3.6,18.869,18.869,0,0,0,2.015-1.523,5.967,5.967,0,0,0,1.921-3.142,15.37,15.37,0,0,0,.136-2.731c0-.972.061-1.793.061-2.806,0-.751-.064-1.27-.061-2.014,0-.428-.06-.61-.064-.973l-.059-1.04c-.744.016-.736,1.053-.857,1.949-.184,1.373-.587,3.344-.742,4.634-.061.511.337.286.5,1.162a2.187,2.187,0,0,1-.133,1.216,1.828,1.828,0,0,1-.236.434,9.372,9.372,0,0,1-.9,1.236,25.913,25.913,0,0,1-3.032,2.7c-.787.861-.757,1.554-1.313,1.554Z" transform="translate(-1970.507 -1954.666)" fill="#ffce29" fill-rule="evenodd"/>
      <path id="Path_320" data-name="Path 320" d="M198.832,1975.07a49.13,49.13,0,0,0,.181,7.932,5.483,5.483,0,0,0,1.058,2.114,5.575,5.575,0,0,0,.918.973l.033.028.033.028,1.959,1.458a5.949,5.949,0,0,1,2.161,4.976c0,.449-.08.726-.069.858.035.433.35.178.679.178.3,0,.062.071.4.036.677-.069,1.693-.039,2.405-.035.4,0,.6-.061.914-.061l.02-5.569c-.277-1.392-1.791-1.983-3.052-2.928-.581-.436-1.2-.813-1.791-1.319a5.531,5.531,0,0,1-1.387-1.479c-.36-.461-1.084-1.333-1.839-1.333-.232,0-.3.26-.3.488a5.015,5.015,0,0,0,1.322,2.155,3.088,3.088,0,0,1,.367.365,1.783,1.783,0,0,0,.337.334c.149.129.247.206.4.332a12.669,12.669,0,0,1,1.554,1.251,3.578,3.578,0,0,1,1.082,1.846c0,.307-.639.98-1.13-.029a4.859,4.859,0,0,0-.773-1.117,29.5,29.5,0,0,1-2.5-2.071l-.7-.827a3.314,3.314,0,0,1-1.054-2.483,1.355,1.355,0,0,1,.549-1.037c-.017-.206-.084-.484-.112-.681-.2-1.271-.367-6.125-1.535-6.151,0,.361-.043.581-.059.978l-.063.791Z" transform="translate(-196.88 -1954.626)" fill="#ffce29" fill-rule="evenodd"/>
      <path id="Path_321" data-name="Path 321" d="M-.01,15.751a.588.588,0,0,0,.549.549c.378,0,1.643-1.43,1.967-1.754C3.614,13.437,15.415,1.561,15.725,1.354c.295.2,4.565,4.536,5.291,5.262.2.2.53.656.869.656.772,0,.549-1.169.549-2.257h1.525V9.346c0,.351,1.142,1.378,1.515,1.718l4.446,4.459c.217.217.643.778.991.778.39,0,.549-.3.549-.671a25.232,25.232,0,0,0-2.272-2.364L26.87,10.947l-.858-.85-.028-.033c-1.21-1.368-.929-.06-.929-4.256,0-.982.181-1.891-.488-1.891H21.762a.555.555,0,0,0-.429.486c-.025.234,0,.661,0,.917l-.852-.795-.029-.032-.215-.212-.094-.089-.09-.093L17.966,1.979c-.063-.063-.088-.091-.154-.151L16.734.771,16.705.739,16.471.485c-.055-.051-.041-.035-.1-.086L16.342.37c-.835-.771-.836-.354-2.737,1.548L.4,15.126c-.171.169-.412.322-.412.625Z" transform="translate(0.01 -0.005)" fill-rule="evenodd"/>
    </g>
  </g>
</svg>
