<svg xmlns="http://www.w3.org/2000/svg" width="29.66" height="23.064" viewBox="0 0 29.66 23.064" fill="#fff">
  <path id="Icon_awesome-home" data-name="Icon awesome-home" d="M14.436,8.237,4.943,16.056v8.439a.824.824,0,0,0,.824.824l5.77-.015a.824.824,0,0,0,.82-.824V19.551a.824.824,0,0,1,.824-.824h3.3a.824.824,0,0,1,.824.824v4.924a.824.824,0,0,0,.824.826l5.768.016a.824.824,0,0,0,.824-.824V16.05L15.223,8.237A.628.628,0,0,0,14.436,8.237Zm15,5.314L25.126,10V2.871a.618.618,0,0,0-.618-.618H21.625a.618.618,0,0,0-.618.618V6.61L16.4,2.817a2.471,2.471,0,0,0-3.141,0L.223,13.551a.618.618,0,0,0-.082.87l1.313,1.6a.618.618,0,0,0,.871.084L14.436,6.126a.628.628,0,0,1,.788,0L27.335,16.1a.618.618,0,0,0,.87-.082l1.313-1.6a.618.618,0,0,0-.088-.872Z"  fill="#fff"/>
</svg>
