<svg width="62" height="61" viewBox="0 0 62 61" fill="none" xmlns="http://www.w3.org/2000/svg">
<circle cx="31.1973" cy="30.5" r="30" fill="white" fill-opacity="0.85" stroke="#5E9942"/>
<path d="M48.22 35.1184C47.995 34.5516 47.6012 34.0793 47.0669 33.8274C46.8138 33.7014 46.5325 33.6384 46.2513 33.6384H18.1552C17.0021 33.6384 16.0459 34.709 16.0459 36C16.0459 37.2911 17.0021 38.3617 18.1552 38.3617H41.1889L36.4922 43.6202C35.6766 44.5334 35.6766 46.0448 36.4922 46.958C36.914 47.4303 37.4484 47.6507 37.9828 47.6507C38.5171 47.6507 39.0515 47.4303 39.4733 46.958L47.77 37.6689C47.9668 37.4485 48.1075 37.1966 48.22 36.9132C48.445 36.3149 48.445 35.6852 48.22 35.1184Z" fill="#1990A6"/>
<path d="M16.2146 25.7985C16.4396 26.3652 16.8334 26.8376 17.3677 27.0895C17.6209 27.2154 17.874 27.2784 18.1552 27.2784H46.2794C47.4325 27.2784 48.3887 26.2078 48.3887 24.9168C48.3887 23.6257 47.4325 22.5551 46.2794 22.5551H23.2457L27.9424 17.2966C28.758 16.3834 28.758 14.872 27.9424 13.9588C27.1268 13.0456 25.7769 13.0456 24.9613 13.9588L16.6646 23.2478C16.4678 23.4683 16.3271 23.7202 16.2146 24.0036C15.9897 24.6019 15.9897 25.2317 16.2146 25.7985Z" fill="#46C79A"/>
</svg>
