<svg width="62" height="61" viewBox="0 0 62 61" fill="none" xmlns="http://www.w3.org/2000/svg">
<circle cx="31.1973" cy="30.5" r="30" fill="white" fill-opacity="0.85" stroke="#5E9942"/>
<path d="M36.6405 21.5154C36.2709 18.2624 33.2268 15.7178 29.5401 15.7178H20.0222C16.0866 15.7178 12.8838 18.6187 12.8838 22.1835V30.8044C12.8838 34.3692 16.0866 37.2702 20.0222 37.2702H29.5401C33.3203 37.2702 36.4216 34.5962 36.6627 31.2269L36.6786 31.224V30.086H31.7927V31.497C31.4739 32.3462 30.5855 32.9597 29.5401 32.9597H20.0222C18.7103 32.9597 17.6427 31.9927 17.6427 30.8044V22.1835C17.6427 20.9952 18.7103 20.0283 20.0222 20.0283H29.5401C30.5855 20.0283 31.4739 20.6418 31.7927 21.4909V22.9019H36.6786V21.5254L36.6405 21.5154Z" fill="#46C79A"/>
<path d="M40.6446 24.3389H31.1267C27.4147 24.3389 24.3563 26.918 24.02 30.2011L23.9883 30.2054V31.523H28.7472V30.8046C28.7472 29.6163 29.8148 28.6493 31.1267 28.6493H40.6446C41.9565 28.6493 43.0241 29.6163 43.0241 30.8046V39.4255C43.0241 40.6138 41.9565 41.5808 40.6446 41.5808H31.1267C29.8148 41.5808 28.7472 40.6138 28.7472 39.4255V38.7071H23.9883V39.5448H23.9899C24.0613 43.0564 27.2355 45.8913 31.1267 45.8913H40.6446C44.5803 45.8913 47.7831 42.9903 47.7831 39.4255V30.8046C47.7831 27.2398 44.5803 24.3389 40.6446 24.3389Z" fill="#1990A6"/>
</svg>
