<svg width="62" height="61" viewBox="0 0 62 61" fill="none" xmlns="http://www.w3.org/2000/svg">
<circle cx="31.1973" cy="30.5" r="30" fill="white" fill-opacity="0.85" stroke="#5E9942"/>
<g clip-path="url(#clip0_218_7)">
<path d="M15.4155 23.5127C15.4155 22.6452 16.1188 21.9408 16.9862 21.9408H22.2658V20.7352C22.2658 15.9177 26.1859 12 31.0014 12C35.8175 12 39.7372 15.9177 39.7372 20.7352V21.9416H45.0149C45.883 21.9416 46.5859 22.6459 46.5859 23.5133V29.4246H15.4161V23.5127H15.4155ZM25.4081 21.9408H36.5947V20.7352C36.5947 17.6503 34.0851 15.1413 31.0007 15.1413C27.917 15.1413 25.4074 17.6495 25.4074 20.7352V21.9408H25.4081Z" fill="#2D527C"/>
<path d="M46.585 44.4285C46.585 45.296 45.882 46 45.0139 46H16.9847C16.1171 46 15.4146 45.296 15.4146 44.4285V32.8708H46.585V44.4285Z" fill="#1990A6"/>
</g>
<defs>
<clipPath id="clip0_218_7">
<rect width="34" height="34" fill="white" transform="matrix(-1 0 0 1 48 12)"/>
</clipPath>
</defs>
</svg>
