<svg xmlns="http://www.w3.org/2000/svg" width="35.489" height="33.454" viewBox="0 0 35.489 33.454">
  <path id="inverted_commas" data-name="inverted commas" d="M20.677-55.515v13.341H7.792V-57.467q0-6.963,3.319-11.388a15.094,15.094,0,0,1,9.566-5.662v5.987a6.457,6.457,0,0,0-4.751,3.124,12.921,12.921,0,0,0-1.757,7.093v2.8Zm21.606,0v13.341H29.2V-57.467q0-6.9,3.384-11.323a15.672,15.672,0,0,1,9.7-5.727v5.987a6.457,6.457,0,0,0-4.751,3.124,12.921,12.921,0,0,0-1.757,7.093v2.8Z" transform="translate(42.782 -41.675) rotate(180)" fill="#13729b" stroke="#fff" stroke-width="0.998"/>
</svg>
