<svg xmlns="http://www.w3.org/2000/svg" width="38.215" height="41.964" viewBox="0 0 38.215 41.964">
  <g id="Group_6510" data-name="Group 6510" transform="translate(0)">
    <g id="Group_246" data-name="Group 246" transform="translate(0)">
      <path id="Path_126" data-name="Path 126" d="M19.654,2.618H17.381a2,2,0,0,0-1,.139,1.344,1.344,0,0,0-.588.559,1.7,1.7,0,0,0-.15.414c-.017.033-.215.018-.259.018H9.407a2.406,2.406,0,0,0-1.843.444,1.5,1.5,0,0,0-.147.135,1.929,1.929,0,0,0-.538,1.465V26.316c-.047-.029-2.556-2.545-2.685-2.673a2.121,2.121,0,0,0-1.059-.737,1.7,1.7,0,0,0-1.418.258,11.772,11.772,0,0,0-.918.88A2.229,2.229,0,0,0,.067,25.1,1.7,1.7,0,0,0,.325,26.53a3.724,3.724,0,0,0,.433.461l.447.447L6.8,33.033c.107.107.079.079.079.365v6.265a3.5,3.5,0,0,0,.053.843,1.907,1.907,0,0,0,.277.626l.144.187a1.871,1.871,0,0,0,.887.569,2.643,2.643,0,0,0,.817.081H35.925a2.229,2.229,0,0,0,1.462-.33,1.913,1.913,0,0,0,.758-1.039,2.663,2.663,0,0,0,.077-.821V5.744a1.909,1.909,0,0,0-.461-1.331,1.79,1.79,0,0,0-.487-.407,2.642,2.642,0,0,0-1.544-.258h-6.27a1.768,1.768,0,0,0-.176-.465,1.335,1.335,0,0,0-.294-.347,1.4,1.4,0,0,0-.406-.235,1.466,1.466,0,0,0-.566-.082H26.1a6.087,6.087,0,0,1-.647,0A2.908,2.908,0,0,0,20.574.785a3.173,3.173,0,0,0-.327.354,2.91,2.91,0,0,0-.592,1.48Z" transform="translate(-0.008 -0.006)" fill-rule="evenodd"/>
      <path id="Path_127" data-name="Path 127" d="M424.149,311.132c0-.2-.031-.435.192-.519a3.966,3.966,0,0,1,.7-.022h20.768c.217,0,.506-.039.632.089s.084.414.084.622v.359a.529.529,0,0,1-.045.312c-.114.183-.312.142-.565.142q-10.389,0-20.781,0c.025.053,1.2,1.208,1.272,1.279a.72.72,0,0,1,.157.358c.078.263.164.526.242.788.315,1.056.653,2.114.963,3.127a.584.584,0,0,1,.046.409.306.306,0,0,1-.328.174c-.137-.024-3.554-1.094-3.917-1.2a2.624,2.624,0,0,1-.558-.2c-.09-.086-.063-.1-.1-.16a1.471,1.471,0,0,0-.125-.128c-.074-.074-.351-.362-.394-.386v3.17h21.353v-3.788c0-.206-.025-.319.1-.442.107-.106.278-.08.452-.08l3.8-.012v-28.2h-5.93a9.38,9.38,0,0,1-.014,1,.3.3,0,0,1-.3.214c-.169.005-.346,0-.515,0H429.15c-.168,0-.337,0-.505,0a.3.3,0,0,1-.311-.208c-.041-.122.008-.8-.016-1l-5.923,0c-.018.081,0,6.513,0,6.513v15.882c0,.208-.021.146.12.288l1.53,1.53a.554.554,0,0,0,.11.1Z" transform="translate(-412.699 -280.243)" fill="#fff" fill-rule="evenodd"/>
      <path id="Path_128" data-name="Path 128" d="M347.783,191.262h6.226a.3.3,0,0,1,.311.321v28.791c0,.172-.1.24-.223.379l-1.028,1.109c-.139.156-.311.32-.457.466-.1.1-.2.21-.308.3l-.307.305c-.167.159-.378.371-.548.521-.03.027-.048.053-.077.079L350.1,224.71c-.366.366-.322.292-.936.292h-21.4a.339.339,0,0,1-.243-.062.291.291,0,0,1-.117-.195c-.016-.115,0-2.269,0-2.448v-1.525c0-.174.021-.142-.072-.235-.2-.2-1.488-1.5-1.534-1.524v5.6a5.1,5.1,0,0,0,.044,1.071,1.3,1.3,0,0,0,1.275.969H354.6a1.282,1.282,0,0,0,.924-.368,1.307,1.307,0,0,0,.4-.9V190.913a1.306,1.306,0,0,0-1.282-1.272h-6.858v1.622Z" transform="translate(-318.316 -185.292)" fill="#ef6331" fill-rule="evenodd"/>
      <path id="Path_129" data-name="Path 129" d="M707.483,33.174h12.632c0-.534,0-1.069,0-1.6s.009-1.078,0-1.612a.742.742,0,0,0-.252-.559.8.8,0,0,0-.617-.192h-2.419c-.265,0-.554.05-.671-.133-.071-.111-.047-.2-.059-.341a2.305,2.305,0,0,0-3.54-1.773,2.379,2.379,0,0,0-.442.364,2.312,2.312,0,0,0-.616,1.4.76.76,0,0,1-.057.349c-.121.187-.406.136-.668.136h-2.419a.8.8,0,0,0-.621.188.761.761,0,0,0-.253.552c-.008.535,0,1.077,0,1.613s0,1.075,0,1.613Z" transform="translate(-691.256 -25.99)" fill="#ffce29" fill-rule="evenodd"/>
      <path id="Path_130" data-name="Path 130" d="M327.412,213.626c-.013-2.42,0-4.843,0-7.263V191.811c0-.294-.064-.617.191-.717a6.184,6.184,0,0,1,.892-.021h5a3.91,3.91,0,0,0,.452,0v-1.613c-.079-.016-1.978,0-2.113,0H327.6a2.589,2.589,0,0,0-.968.09,1.286,1.286,0,0,0-.6.473,1.348,1.348,0,0,0-.231.826V211c0,.139-.021,1,.011,1.045l1.058,1.059C326.949,213.174,327.357,213.6,327.412,213.626Z" transform="translate(-318.328 -185.103)" fill="#ef6331" fill-rule="evenodd"/>
      <path id="Path_131" data-name="Path 131" d="M499.3,532.427a.3.3,0,0,0-.217.156.759.759,0,0,0-.035.332c0,.231-.016.523,0,.746.022.289.279.286.462.286h21.292c.225,0,.483.05.586-.164a.769.769,0,0,0,.033-.334c0-.239.012-.512,0-.748a.3.3,0,0,0-.136-.231.556.556,0,0,0-.328-.051H500.038a6.472,6.472,0,0,0-.736.007Z" transform="translate(-487.599 -520.203)" fill-rule="evenodd"/>
      <path id="Path_132" data-name="Path 132" d="M499.469,1059.648c-.236.061-.23.248-.23.509,0,.127-.007.662,0,.74a.3.3,0,0,0,.146.224.634.634,0,0,0,.333.043h20.923a6.164,6.164,0,0,0,.736-.009c.273-.065.233-.328.233-.5v-.745a.284.284,0,0,0-.144-.224.616.616,0,0,0-.338-.046H500.208A6.087,6.087,0,0,0,499.469,1059.648Z" transform="translate(-487.788 -1035.332)" fill-rule="evenodd"/>
      <path id="Path_133" data-name="Path 133" d="M499.463,796.182c-.265.072-.227.329-.227.511,0,.126-.007.664,0,.742a.293.293,0,0,0,.147.222.722.722,0,0,0,.342.041h20.913a6.039,6.039,0,0,0,.743-.01.3.3,0,0,0,.2-.168,3.6,3.6,0,0,0,.026-.711c0-.108.01-.275,0-.376a.306.306,0,0,0-.146-.221.705.705,0,0,0-.344-.04H500.2a6.849,6.849,0,0,0-.742.009Z" transform="translate(-487.785 -777.91)" fill-rule="evenodd"/>
      <path id="Path_134" data-name="Path 134" d="M157.89,1154.889l7.786,7.788a1.968,1.968,0,0,0,.2-.192c.079-.079.574-.558.594-.607l-7.782-7.778c-.048.018-.523.51-.6.587a2.12,2.12,0,0,0-.2.2Z" transform="translate(-154.269 -1127.634)" fill="#fff" fill-rule="evenodd"/>
      <path id="Path_135" data-name="Path 135" d="M119.72,1207.612c1.933,1.951,3.9,3.9,5.843,5.844l1.7,1.7c.083.083.17.164.247.247l.447-.443c-.28-.263-.687-.685-.973-.973-1.618-1.627-3.254-3.243-4.871-4.871-.325-.327-.644-.647-.971-.972s-.647-.654-.976-.975l-.446.442Z" transform="translate(-116.975 -1179.487)" fill="#ffce29" fill-rule="evenodd"/>
      <path id="Path_136" data-name="Path 136" d="M27.568,1026.12l2.535-2.533a11.08,11.08,0,0,0-.872-.84,1.091,1.091,0,0,0-1.292.072,1.821,1.821,0,0,0-.144.138l-.146.146c-.14.14-.771.76-.852.858a1.121,1.121,0,0,0-.233.881,1.218,1.218,0,0,0,.427.71c.074.074.537.548.577.569Z" transform="translate(-25.941 -999.119)" fill="#ffce29" fill-rule="evenodd"/>
      <path id="Path_137" data-name="Path 137" d="M211.15,1116.436c.025.047,1.914,1.921,1.945,1.953l1.948,1.948,2.919,2.919c.06.06.936.949.98.973l.439-.436c-.023-.04-.416-.423-.484-.491l-6.328-6.329-.486-.485c-.068-.067-.455-.466-.494-.487Z" transform="translate(-206.308 -1090.408)" fill="#ffce29" fill-rule="evenodd"/>
      <path id="Path_138" data-name="Path 138" d="M525.8,1086.654h21.161v-.314H525.8Z" transform="translate(-513.742 -1061.428)" fill="#ffce29" fill-rule="evenodd"/>
      <path id="Path_139" data-name="Path 139" d="M525.8,559.253l0,.27h21.155c.009-.076,0-.225,0-.313H525.8Z" transform="translate(-513.742 -546.386)" fill="#ffce29" fill-rule="evenodd"/>
      <path id="Path_140" data-name="Path 140" d="M525.8,823.181h21.162v-.311H525.8Z" transform="translate(-513.742 -804)" fill="#ffce29" fill-rule="evenodd"/>
      <path id="Path_141" data-name="Path 141" d="M525.79,1350.231h21.162v-.311H525.794Z" transform="translate(-513.733 -1318.964)" fill="#ffce29" fill-rule="evenodd"/>
      <path id="Path_142" data-name="Path 142" d="M1380.17,1547.012c.09-.062.53-.484.648-.595.036-.034.075-.059.109-.1.1-.106.222-.206.325-.306l.636-.617c.348-.349.7-.68,1.042-1.047l.6-.65-3.362,0v3.312Z" transform="translate(-1348.52 -1508.3)" fill="#ffce29" fill-rule="evenodd"/>
      <path id="Path_143" data-name="Path 143" d="M483.51,1483.189l2.16.663.775-.778c0-.086-.43-1.422-.492-1.628-.027-.089-.055-.178-.082-.268a2.561,2.561,0,0,0-.084-.267c-.047.031-1.824,1.818-1.993,1.988A3.556,3.556,0,0,0,483.51,1483.189Z" transform="translate(-472.422 -1446.95)" fill="#fff" fill-rule="evenodd"/>
      <path id="Path_144" data-name="Path 144" d="M920.038,62.814a1.421,1.421,0,0,0-1.283,1.606c.095.183.265.163.427.163h1.768a1.766,1.766,0,0,0,.556-.034c.279-.138.138-.636.028-.886a1.476,1.476,0,0,0-1.5-.848Z" transform="translate(-897.651 -61.364)" fill="#444242" fill-rule="evenodd"/>
      <path id="Path_145" data-name="Path 145" d="M89.81,1088.443c.061.085.189.172.247.256.043-.023,1.206-1.2,1.272-1.265l.952-.952c.1-.1.213-.224.318-.317-.061-.086-.187-.171-.247-.256-.041.021-.269.262-.32.313l-1.9,1.9C90.025,1088.23,89.915,1088.35,89.81,1088.443Z" transform="translate(-87.751 -1061.008)" fill="#fff" fill-rule="evenodd"/>
      <path id="Path_146" data-name="Path 146" d="M947.76,89.914h1.618a.864.864,0,0,0-1.32-.4.842.842,0,0,0-.3.395Z" transform="translate(-926.026 -87.302)" fill="#fff" fill-rule="evenodd"/>
      <path id="Path_147" data-name="Path 147" d="M606.36,1604.039l.468.142-.14-.471a1.494,1.494,0,0,0-.165.158A1.152,1.152,0,0,0,606.36,1604.039Z" transform="translate(-592.455 -1566.934)" fill="#ffce29" fill-rule="evenodd"/>
    </g>
  </g>
</svg>
