<svg id="Layer_x0020_1" xmlns="http://www.w3.org/2000/svg" width="39.969" height="42.011" viewBox="0 0 39.969 42.011">
  <g id="_2474475295632" transform="translate(0 0)">
    <path id="Path_148" data-name="Path 148" d="M39.151,749.963l-31.038-.372L6.76,747.056c.513-6.052,10.238-1.937,11.4-3.712,2.14-3.263,2.185-16.99,9.418-18.324,5.658-.74,9.8,1.145,11.57,7.143v17.8Z" transform="translate(0.662 -708.044)" fill="#ef6331" fill-rule="evenodd"/>
    <path id="Path_149" data-name="Path 149" d="M9.215,564.722a2.6,2.6,0,0,0-.65,4.018c1.03,1.245,3.162.9,5.063.9,1.194,0,7.929.124,8.8-.131a3.3,3.3,0,0,0,1.74-1.247c.966-1.833,4.417-12.352,4.689-12.663.294-.334.722-.106.613.421l-.715,2.042c-.758,1.5-3.125,9.321-3.943,10.586l-1.056,1.092a5.042,5.042,0,0,1-2.334.648c-3.154.036-21,.095-21.239-.1-.187-.23-.137-.331-.134-.735.026-3.309-.376-2.912,1.31-2.962-.018-3.108-.209-2.174,1.73-2.385l0-3.937c-.7-.077-2.521.2-2.968-.184a5.972,5.972,0,0,1,.022-2.178,69.513,69.513,0,0,1,9,0,5.375,5.375,0,0,1-.007,2.242c-.578.265-2.169.03-2.934.121l0,3.932a12.114,12.114,0,0,0,2.316-.011,4.427,4.427,0,0,1,1.772-.626c1.262-.1,1.008.223,1.772-.572a6.341,6.341,0,0,0,.33-8.576,4.106,4.106,0,0,1-3.125-.686c-.6.431-1.842,2.023-2.391,2.206-.5-.151-.335-.355-.823-.528a7.65,7.65,0,0,1-1.368,1.326c-.353-.05-.991-.806-1.224-1.035-1.73-1.708-1.075-1.047.257-2.713-.3-.492-.966-.665-.281-1.334.4-.4.739-.74,1.142-1.138l5.785-5.782c.314-.322.811-1,1.331-1.045l.85.807,1.054-.956c-.858-1.21-1.356-.658.052-2.092.811-.826.729-.613,2.18.83.666.662,1.265,1.27,1.932,1.925.56.55.3.7-.14,1.13-1.092,1.07-.954,1.355-2.048.116a3.387,3.387,0,0,0-1.015.966c.215.45.774.725.8.964-.067.441-.538.7-.8,1.052a4.763,4.763,0,0,1,.713,1.759c.061.4-.024.964.026,1.2a10.949,10.949,0,0,1,2.648,8.378,10.483,10.483,0,0,1-.446,2.005c-.18.566-.641,1.4-.723,1.785l1.911-.006c.334-.867.622-2.226.884-3.2l2.676-9.775A9.169,9.169,0,0,1,39.987,554.3v14.546c0,.326.024.742.006,1.055-.027.468-.134.508-.615.432-.285-.559-.134-13.993-.132-15.771a8.832,8.832,0,0,0-1.908-6.1A8.4,8.4,0,0,0,22.7,551.715c-.3,1.2-3.254,12.385-3.5,12.535-1.714.407-9.2-.466-9.984.471Z" transform="translate(-0.03 -528.412)" fill="#04143a" fill-rule="evenodd"/>
    <path id="Path_150" data-name="Path 150" d="M343.345.123a7.463,7.463,0,1,1-8.562,6.148A7.428,7.428,0,0,1,343.345.123Z" transform="translate(-317.434 -0.011)" fill="#04143a" fill-rule="evenodd"/>
    <path id="Path_151" data-name="Path 151" d="M407.532,83.039c-1.277,1.9-5.483,2.921-8.224,1.158a6.627,6.627,0,0,1-2.646-2.875c-.434-.881-1.114-3.815-.384-4.627-.013.363.017.166.037.249a6.027,6.027,0,0,1,1.359-2.265,6.165,6.165,0,0,1,.5-.471,6.407,6.407,0,0,1,10.415,3.356C409.395,80.85,407.368,82.741,407.532,83.039Z" transform="translate(-377.997 -70.927)" fill="#ef6331" fill-rule="evenodd"/>
    <path id="Path_152" data-name="Path 152" d="M1134.388,761.2l-6.995,7.058a23.948,23.948,0,0,1-2.653-2.667,24.607,24.607,0,0,0,2.277-2.192l3.372-3.374C1132.2,758.274,1132.851,759.883,1134.388,761.2Z" transform="translate(-1120.522 -741.635)" fill="#ffce29" fill-rule="evenodd"/>
    <path id="Path_153" data-name="Path 153" d="M996.3,1086.181c-.189.153-.336.128-.7.123l-2.607-.007a7.319,7.319,0,0,0,1.8-6.873,14.051,14.051,0,0,0-.961-2.173,8.28,8.28,0,0,0,.844-.609c.317-.316.406-.647,1.07-.465a5.5,5.5,0,0,1,1.1,2.087,9.73,9.73,0,0,1,.175,5.619,7.38,7.38,0,0,1-.981,2.281l.264.017Z" transform="translate(-980.421 -1051.151)" fill="#ffce29" fill-rule="evenodd"/>
    <path id="Path_154" data-name="Path 154" d="M378.518,43.531c-.164-.3,1.863-2.189,1.053-5.476A6.408,6.408,0,0,0,369.155,34.7a6.2,6.2,0,0,0-1.855,2.736c-.02-.083-.05.114-.037-.249-.016-1.464,1.872-3.56,3.523-4.355a6.736,6.736,0,0,1,9.546,4.9,6.507,6.507,0,0,1-1.815,5.8Z" transform="translate(-348.983 -31.419)" fill="#fff" fill-rule="evenodd"/>
    <path id="Path_155" data-name="Path 155" d="M1416.817,1700.114l-6.477.005v-1.749c1.151-.135,2.94-.028,4.162-.03.645,0,1.328-.137,1.638.4Z" transform="translate(-1409.58 -1658.885)" fill="#ffce29" fill-rule="evenodd"/>
    <path id="Path_156" data-name="Path 156" d="M1110.835,701.846c-1.537-1.32-2.183-2.929-4-1.175l-3.372,3.374a24.606,24.606,0,0,1-2.277,2.192l-.2-.159c.2-.41,3.426-3.522,3.741-3.834.6-.593,3.409-3.506,3.821-3.755l2.834,2.83-.551.526Z" transform="translate(-1096.969 -682.279)" fill="#ffce29" fill-rule="evenodd"/>
    <path id="Path_157" data-name="Path 157" d="M1364.866,1299.6l-7.706,0,0-.953,7.7,0Z" transform="translate(-1356.395 -1268.509)" fill="#ffce29" fill-rule="evenodd"/>
    <path id="Path_158" data-name="Path 158" d="M1489.953,1372.22v3.422l-1.612,0v-3.927l1.612-.032Z" transform="translate(-1484.527 -1339.845)" fill="#ffce29" fill-rule="evenodd"/>
    <path id="Path_159" data-name="Path 159" d="M1116.973,902.333a2.913,2.913,0,0,1-4.149.661,1.823,1.823,0,0,1,.642-.653c1.131.374,1.678.487,2.538-.313,1.1-1.026.406-2.2.333-2.654l.347-.263c.16.607.439.75.476,1.6.045,1.018-.343,1.436-.188,1.618Z" transform="translate(-1103.023 -878.242)" fill="#ffce29" fill-rule="evenodd"/>
    <path id="Path_160" data-name="Path 160" d="M1431.1,1598.288l-4.61.011.013-1.081c.655-.037,4.434-.141,4.721.134.192.25-.065.746-.124.936Z" transform="translate(-1424.428 -1560.099)" fill="#ffce29" fill-rule="evenodd"/>
    <path id="Path_161" data-name="Path 161" d="M1369.086,1679.434l-.676-1.378c-.31-.533-.994-.4-1.638-.4-1.222,0-3.011-.105-4.162.03l.009-.56,6.344,0a7.383,7.383,0,0,0,.451,1.318,6.234,6.234,0,0,0,.78.972l-1.108.009Z" transform="translate(-1361.849 -1638.205)" fill="#fff" fill-rule="evenodd"/>
    <path id="Path_162" data-name="Path 162" d="M981.471,1041.39l-.264-.017a7.371,7.371,0,0,0,.982-2.281,9.729,9.729,0,0,0-.175-5.619,5.5,5.5,0,0,0-1.1-2.087c-.664-.182-.752.149-1.069.465a8.234,8.234,0,0,1-.844.608,1.139,1.139,0,0,1-.264-.405c1.033-.3,1.634-1.555,1.856-1.785a9.676,9.676,0,0,1,1.978,8.51,7.509,7.509,0,0,1-1.1,2.61Z" transform="translate(-965.595 -1006.358)" fill="#fff" fill-rule="evenodd"/>
    <path id="Path_163" data-name="Path 163" d="M1393.967,1576.86c.059-.189.316-.686.124-.936-.286-.276-4.066-.172-4.721-.135l.007-.559h5.646a4.176,4.176,0,0,0-.575,1.627h-.481Z" transform="translate(-1387.299 -1538.67)" fill="#fff" fill-rule="evenodd"/>
    <path id="Path_164" data-name="Path 164" d="M1484.421,1083.653l-.969,1-1.311-1.314c.3-.332.653-.635.935-.968l1.346,1.283Z" transform="translate(-1478.851 -1057.249)" fill="#fff" fill-rule="evenodd"/>
    <path id="Path_165" data-name="Path 165" d="M986.874,583.562a12.266,12.266,0,0,1-1.43-1.37,9.456,9.456,0,0,0-1.484-1.377l.427-.465c.7.394,2.123,2.238,2.864,2.747C987.125,583.411,987.1,583.383,986.874,583.562Z" transform="translate(-970.119 -566.881)" fill="#fff" fill-rule="evenodd"/>
    <path id="Path_166" data-name="Path 166" d="M1081.049,677.11a4.314,4.314,0,0,1-.972,1.035,10.131,10.131,0,0,1-.806-.718c.126-.327.2-.329.449-.569a2.664,2.664,0,0,1,.532-.458l.8.71Z" transform="translate(-1066.128 -660.701)" fill="#fff" fill-rule="evenodd"/>
    <path id="Path_167" data-name="Path 167" d="M1167.228,943.445c.03-.244.1-.236.293-.431l.441-.437a4.985,4.985,0,0,1,.909-.847c.564.921-.478,2.019-1.643,1.714Z" transform="translate(-1156.149 -919.873)" fill="#fff" fill-rule="evenodd"/>
    <path id="Path_168" data-name="Path 168" d="M1003.307,603.127l-.179.271c-.321-.136-2.465-2.38-2.9-2.8.053-.211,0-.1.164-.214a9.467,9.467,0,0,1,1.484,1.377,12.233,12.233,0,0,0,1.43,1.37Z" transform="translate(-986.552 -586.446)" fill="#ffce29" fill-rule="evenodd"/>
    <path id="Path_169" data-name="Path 169" d="M1095.681,890.806c-.155-.182.233-.6.188-1.618-.037-.855-.316-1-.476-1.6l.272-.274a2.833,2.833,0,0,1,.016,3.5Z" transform="translate(-1081.731 -866.716)" fill="#fff" fill-rule="evenodd"/>
  </g>
</svg>
