<svg xmlns="http://www.w3.org/2000/svg" width="63" height="63" viewBox="0 0 63 63">
  <g id="Phone_no." data-name="Phone no." transform="translate(0 0)">
    <ellipse id="Ellipse_10365" data-name="Ellipse 10365" cx="30.964" cy="30.964" rx="30.964" ry="30.964" transform="matrix(1, -0.017, 0.017, 1, 0, 1.081)" fill="#13729b"/>
    <path id="reshot-icon-phone-XVG9DMYSLJ" d="M27.867,23.019a2.813,2.813,0,0,1-.7,4.482,10.065,10.065,0,0,1-7.307.857C13.343,26.717,3.971,17.345,2.33,10.825a10.066,10.066,0,0,1,.857-7.307,2.813,2.813,0,0,1,4.482-.7L10.451,5.6a2.794,2.794,0,0,1,.594,3.107,5.173,5.173,0,0,1-1.038,1.564c-3.181,3.181,7.229,13.591,10.408,10.408a5.174,5.174,0,0,1,1.565-1.042,2.792,2.792,0,0,1,3.107.594Z" transform="translate(16.246 16.244)" fill="#fff"/>
  </g>
</svg>
