<?xml version="1.0" encoding="UTF-8"?>
<!DOCTYPE svg PUBLIC "-//W3C//DTD SVG 1.1//EN" "http://www.w3.org/Graphics/SVG/1.1/DTD/svg11.dtd">
<!-- Creator: CorelDRAW 2020 (64-Bit) -->
<svg xmlns="http://www.w3.org/2000/svg" xml:space="preserve" width="119.367mm" height="110.108mm" version="1.1" style="shape-rendering:geometricPrecision; text-rendering:geometricPrecision; image-rendering:optimizeQuality; fill-rule:evenodd; clip-rule:evenodd"
viewBox="0 0 11922.42 10997.66"
 xmlns:xlink="http://www.w3.org/1999/xlink"
 xmlns:xodm="http://www.corel.com/coreldraw/odm/2003">
 <defs>
  <style type="text/css">
   <![CDATA[
    .fil4 {fill:#018D41}
    .fil2 {fill:#056137}
    .fil5 {fill:#95BE32}
    .fil3 {fill:#E14124}
    .fil0 {fill:#2B2A29;fill-rule:nonzero}
    .fil1 {fill:#2B2A29;fill-rule:nonzero}
    .fil7 {fill:#29298C;fill-rule:nonzero}
    .fil6 {fill:#E14124;fill-rule:nonzero}
   ]]>
  </style>
 </defs>
 <g id="Layer_x0020_1">
  <metadata id="CorelCorpID_0Corel-Layer"/>
  <g>
   <path class="fil0" d="M5961.2 31.93c1401.64,0 2689.67,486.42 3704.59,1299.59l-90.88 90.88c-991.33,-790.31 -2247.33,-1262.73 -3613.71,-1262.73 -1366.38,0 -2622.36,472.42 -3613.69,1262.72l-90.87 -90.87c1014.91,-813.16 2302.93,-1299.59 3704.56,-1299.59zm4629.7 2224.7c813.17,1014.91 1299.58,2302.93 1299.58,3704.58 0,1401.65 -486.41,2689.67 -1299.57,3704.58l-90.88 -90.88c790.31,-991.34 1262.72,-2247.32 1262.72,-3613.7 0,-1366.37 -472.43,-2622.37 -1262.73,-3613.7l90.88 -90.88zm-9259.39 7409.16c-813.17,-1014.92 -1299.59,-2302.96 -1299.59,-3704.59 0,-1401.64 486.43,-2689.67 1299.6,-3704.58l90.87 90.87c-790.31,991.33 -1262.74,2247.33 -1262.74,3613.71 0,1366.38 472.44,2622.37 1262.74,3613.71l-90.88 90.88zm4629.68 -8637.65c1126.39,0 2164.59,377.55 2995,1012.96l-91.16 91.16c-806.64,-612.69 -1812.75,-976.39 -2903.84,-976.39 -1091.08,0 -2097.2,363.7 -2903.82,976.38l-91.15 -91.15c830.41,-635.41 1868.61,-1012.96 2994.97,-1012.96zm3920.11 1938.07c635.41,830.42 1012.96,1868.61 1012.96,2994.99 0,1126.37 -377.54,2164.58 -1012.94,2994.98l-91.17 -91.16c612.68,-806.63 976.38,-1812.73 976.38,-2903.82 0,-1091.09 -363.71,-2097.19 -976.39,-2903.82l91.16 -91.17zm-7840.21 5989.99c-635.4,-830.41 -1012.95,-1868.61 -1012.95,-2994.99 0,-1126.39 377.56,-2164.58 1012.97,-2994.99l91.14 91.15c-612.68,806.63 -976.38,1812.75 -976.38,2903.84 0,1091.1 363.71,2097.21 976.38,2903.83l-91.16 91.16zm3920.1 -6893.53c840.38,0 1618.63,265.92 2255.26,718.18l-91.67 91.67c-612.44,-429.81 -1358.54,-682.13 -2163.59,-682.13 -805.03,0 -1551.1,252.32 -2163.56,682.11l-91.68 -91.66c636.61,-452.27 1414.88,-718.17 2255.24,-718.17zm3180.36 1643.29c452.26,636.63 718.18,1414.87 718.18,2255.25 0,840.36 -265.92,1618.62 -718.17,2255.24l-91.66 -91.67c429.79,-612.44 682.11,-1358.52 682.11,-2163.57 0,-805.04 -252.32,-1551.13 -682.13,-2163.58l91.67 -91.67zm-6360.72 4510.5c-452.26,-636.62 -718.17,-1414.88 -718.17,-2255.25 0,-840.38 265.91,-1618.63 718.17,-2255.26l91.67 91.67c-429.79,612.46 -682.12,1358.54 -682.12,2163.59 0,805.05 252.32,1551.14 682.12,2163.59l-91.67 91.66z"/>
   <path id="1" class="fil1" d="M9688.37 1354.1l-45.17 -45.17 2.62 47.5 -95.44 -74.87 -96.98 -72.93 -98.52 -70.98 -100.03 -68.99 -101.51 -66.95 -102.95 -64.91 -104.37 -62.82 -105.75 -60.73 -107.12 -58.58 -108.44 -56.43 -109.74 -54.22 -111.02 -52.01 -112.26 -49.74 -113.47 -47.46 -114.65 -45.16 -115.81 -42.81 -116.94 -40.44 -118.03 -38.04 -119.11 -35.62 -120.15 -33.16 -121.15 -30.68 -122.14 -28.15 -123.09 -25.62 -124.01 -23.05 -124.91 -20.44 -125.78 -17.81 -126.61 -15.15 -127.43 -12.46 -128.21 -9.75 -128.96 -6.99 -129.68 -4.22 -130.37 -1.41 0 -63.86 131.75 1.43 131.07 4.26 130.33 7.07 129.59 9.85 128.79 12.59 127.99 15.31 127.14 18.01 126.27 20.66 125.37 23.29 124.43 25.9 123.46 28.47 122.48 31 121.45 33.52 120.41 36.02 119.33 38.46 118.22 40.88 117.07 43.27 115.91 45.66 114.69 47.98 113.49 50.28 112.22 52.57 110.94 54.81 109.62 57.03 108.28 59.22 106.89 61.39 105.5 63.5 104.07 65.61 102.61 67.69 101.11 69.73 99.58 71.73 98.04 73.73 96.45 75.67 2.62 47.5zm-2.62 -47.5c13.75,11.03 15.98,31.13 4.95,44.89 -11.03,13.75 -31.13,15.98 -44.89,4.95l39.93 -49.84zm-133.43 93.22l90.88 -90.88 45.17 45.17 -90.88 90.88 -42.49 2.39 -2.68 -47.55zm45.17 45.17c-12.47,12.47 -32.7,12.47 -45.17,0 -12.47,-12.47 -12.47,-32.7 0,-45.17l45.17 45.17zm-3636.29 -1253.38l0 -63.86 0 0 128.46 1.39 127.79 4.15 127.08 6.86 126.35 9.57 125.58 12.24 124.79 14.88 123.98 17.48 123.12 20.08 122.25 22.63 121.35 25.16 120.42 27.66 119.45 30.12 118.46 32.57 117.44 34.98 116.39 37.37 115.31 39.72 114.21 42.06 113.07 44.35 111.92 46.62 110.73 48.87 109.51 51.08 108.25 53.27 106.98 55.42 105.68 57.54 104.34 59.66 102.99 61.73 101.59 63.76 100.18 65.78 98.73 67.77 97.25 69.73 95.76 71.65 94.22 73.55 -39.81 49.94 -93.2 -72.75 -94.7 -70.88 -96.2 -68.97 -97.65 -67.03 -99.08 -65.06 -100.49 -63.06 -101.85 -61.05 -103.2 -59 -104.53 -56.92 -105.8 -54.8 -107.07 -52.69 -108.29 -50.52 -109.51 -48.33 -110.68 -46.1 -111.83 -43.87 -112.96 -41.58 -114.03 -39.28 -115.11 -36.97 -116.14 -34.6 -117.16 -32.21 -118.13 -29.78 -119.08 -27.36 -120.01 -24.88 -120.92 -22.37 -121.76 -19.86 -122.62 -17.3 -123.43 -14.72 -124.22 -12.1 -124.97 -9.47 -125.7 -6.78 -126.41 -4.11 -127.08 -1.37 0 0zm0 0c-17.63,0 -31.93,-14.3 -31.93,-31.93 0,-17.63 14.3,-31.93 31.93,-31.93l0 63.86zm-3636.27 1253.37l45.17 -45.17 -42.49 -2.39 94.22 -73.55 95.76 -71.65 97.25 -69.73 98.73 -67.77 100.18 -65.78 101.58 -63.76 103 -61.73 104.34 -59.65 105.67 -57.55 106.98 -55.42 108.25 -53.27 109.51 -51.08 110.73 -48.86 111.92 -46.62 113.07 -44.35 114.21 -42.06 115.31 -39.73 116.39 -37.36 117.44 -34.98 118.45 -32.57 119.45 -30.13 120.43 -27.65 121.35 -25.16 122.24 -22.63 123.12 -20.08 123.97 -17.49 124.8 -14.87 125.58 -12.24 126.35 -9.57 127.08 -6.87 127.79 -4.14 128.46 -1.39 0 63.86 -127.08 1.37 -126.41 4.1 -125.7 6.79 -124.97 9.47 -124.22 12.1 -123.42 14.71 -122.61 17.31 -121.78 19.86 -120.91 22.37 -120.01 24.88 -119.09 27.35 -118.13 29.79 -117.15 32.21 -116.14 34.6 -115.11 36.96 -114.03 39.29 -112.96 41.58 -111.83 43.87 -110.68 46.1 -109.51 48.32 -108.29 50.52 -107.07 52.69 -105.8 54.8 -104.52 56.93 -103.2 58.99 -101.86 61.05 -100.48 63.06 -99.08 65.06 -97.65 67.03 -96.2 68.97 -94.7 70.88 -93.2 72.75 -42.49 -2.39zm42.49 2.39c-13.78,10.99 -33.89,8.72 -44.88,-5.06 -10.99,-13.78 -8.72,-33.89 5.06,-44.88l39.81 49.94zm-88.19 -138.42l90.87 90.87 -45.17 45.17 -90.87 -90.87 2.62 -47.5 42.55 2.34zm-45.17 45.17c-12.47,-12.47 -12.47,-32.7 0,-45.17 12.47,-12.47 32.7,-12.47 45.17,0l-45.17 45.17zm3727.14 -1354.1l0 63.86 0 0 -130.37 1.41 -129.68 4.22 -128.96 6.99 -128.2 9.75 -127.44 12.46 -126.61 15.15 -125.78 17.81 -124.9 20.45 -124.01 23.04 -123.09 25.62 -122.13 28.16 -121.16 30.68 -120.15 33.16 -119.11 35.61 -118.03 38.04 -116.93 40.44 -115.81 42.82 -114.65 45.15 -113.47 47.46 -112.26 49.75 -111.02 52 -109.74 54.23 -108.44 56.42 -107.12 58.59 -105.75 60.72 -104.37 62.83 -102.95 64.91 -101.5 66.95 -100.03 68.98 -98.52 70.98 -96.98 72.93 -95.44 74.87 -39.93 -49.84 96.45 -75.67 98.04 -73.73 99.58 -71.73 101.11 -69.72 102.6 -67.69 104.07 -65.61 105.5 -63.51 106.89 -61.38 108.28 -59.23 109.62 -57.02 110.94 -54.82 112.22 -52.56 113.47 -50.29 114.71 -47.98 115.91 -45.65 117.07 -43.28 118.21 -40.88 119.33 -38.46 120.41 -36.01 121.45 -33.52 122.47 -31 123.47 -28.48 124.43 -25.9 125.37 -23.28 126.26 -20.67 127.14 -18.01 127.99 -15.31 128.8 -12.59 129.58 -9.85 130.33 -7.07 131.07 -4.26 131.75 -1.43 0 0zm0 0c17.63,0 31.93,14.3 31.93,31.93 0,17.63 -14.3,31.93 -31.93,31.93l0 -63.86zm5961.21 5961.21l-63.86 0 0 0 -1.41 -130.37 -4.22 -129.68 -6.99 -128.96 -9.75 -128.21 -12.46 -127.44 -15.15 -126.61 -17.81 -125.78 -20.44 -124.91 -23.05 -124 -25.61 -123.09 -28.16 -122.13 -30.68 -121.16 -33.16 -120.16 -35.61 -119.1 -38.04 -118.03 -40.44 -116.94 -42.82 -115.81 -45.15 -114.65 -47.46 -113.46 -49.75 -112.27 -52 -111.02 -54.23 -109.74 -56.42 -108.44 -58.58 -107.12 -60.73 -105.75 -62.82 -104.37 -64.91 -102.95 -66.95 -101.5 -68.99 -100.03 -70.98 -98.52 -72.93 -96.98 -74.87 -95.44 49.84 -39.93 75.67 96.45 73.73 98.04 71.73 99.58 69.73 101.11 67.69 102.6 65.61 104.07 63.5 105.5 61.39 106.89 59.22 108.28 57.02 109.62 54.82 110.94 52.56 112.22 50.29 113.48 47.98 114.7 45.65 115.91 43.28 117.07 40.88 118.22 38.46 119.33 36.01 120.4 33.52 121.46 31 122.47 28.48 123.47 25.89 124.43 23.29 125.36 20.66 126.27 18.01 127.14 15.31 127.99 12.59 128.8 9.85 129.59 7.07 130.33 4.26 131.07 1.43 131.75 0 0zm0 0c0,17.63 -14.3,31.93 -31.93,31.93 -17.63,0 -31.93,-14.3 -31.93,-31.93l63.86 0zm-1354.08 3727.16l45.17 -45.17 -47.5 2.62 74.87 -95.44 72.93 -96.98 70.98 -98.52 68.98 -100.03 66.95 -101.5 64.91 -102.95 62.83 -104.37 60.72 -105.75 58.58 -107.12 56.43 -108.44 54.22 -109.74 52 -111.02 49.75 -112.27 47.46 -113.46 45.15 -114.65 42.82 -115.81 40.44 -116.94 38.04 -118.03 35.61 -119.1 33.16 -120.16 30.68 -121.16 28.16 -122.13 25.61 -123.09 23.05 -124 20.44 -124.91 17.81 -125.78 15.15 -126.61 12.46 -127.44 9.75 -128.21 6.99 -128.96 4.22 -129.68 1.41 -130.37 63.86 0 -1.43 131.75 -4.26 131.07 -7.07 130.33 -9.85 129.59 -12.59 128.8 -15.31 127.99 -18.01 127.14 -20.66 126.27 -23.29 125.36 -25.89 124.43 -28.48 123.47 -31 122.47 -33.52 121.46 -36.01 120.4 -38.46 119.33 -40.88 118.22 -43.28 117.07 -45.65 115.91 -47.98 114.7 -50.29 113.48 -52.56 112.22 -54.81 110.94 -57.03 109.62 -59.22 108.28 -61.38 106.89 -63.51 105.5 -65.61 104.07 -67.69 102.6 -69.72 101.11 -71.73 99.58 -73.73 98.04 -75.67 96.45 -47.5 2.62zm47.5 -2.62c-11.03,13.75 -31.13,15.98 -44.89,4.95 -13.75,-11.03 -15.98,-31.13 -4.95,-44.89l49.84 39.93zm-93.22 -133.43l90.88 90.88 -45.17 45.17 -90.88 -90.88 -2.39 -42.49 47.55 -2.68zm-45.17 45.17c-12.47,-12.47 -12.47,-32.7 0,-45.17 12.47,-12.47 32.7,-12.47 45.17,0l-45.17 45.17zm1253.37 -3636.28l63.86 0 0 0 -1.39 128.46 -4.14 127.79 -6.87 127.08 -9.57 126.35 -12.24 125.58 -14.87 124.8 -17.49 123.97 -20.08 123.12 -22.63 122.24 -25.16 121.35 -27.65 120.43 -30.13 119.45 -32.57 118.45 -34.98 117.44 -37.36 116.39 -39.73 115.31 -42.06 114.21 -44.35 113.07 -46.62 111.92 -48.86 110.73 -51.08 109.51 -53.27 108.25 -55.42 106.98 -57.55 105.67 -59.65 104.35 -61.73 102.99 -63.76 101.59 -65.78 100.18 -67.77 98.72 -69.73 97.26 -71.65 95.76 -73.55 94.22 -49.94 -39.81 72.75 -93.2 70.88 -94.7 68.97 -96.21 67.03 -97.64 65.06 -99.08 63.06 -100.49 61.05 -101.85 58.99 -103.21 56.93 -104.52 54.8 -105.8 52.69 -107.07 50.52 -108.29 48.32 -109.51 46.1 -110.68 43.87 -111.83 41.58 -112.96 39.29 -114.03 36.96 -115.11 34.6 -116.14 32.21 -117.15 29.79 -118.13 27.35 -119.09 24.88 -120.01 22.37 -120.91 19.86 -121.78 17.31 -122.61 14.71 -123.42 12.1 -124.22 9.47 -124.97 6.79 -125.7 4.1 -126.41 1.37 -127.08 0 0zm0 0c0,-17.63 14.3,-31.93 31.93,-31.93 17.63,0 31.93,14.3 31.93,31.93l-63.86 0zm-1253.38 -3636.28l45.17 45.17 2.39 -42.49 73.55 94.22 71.65 95.76 69.73 97.25 67.77 98.73 65.78 100.18 63.76 101.59 61.73 102.99 59.66 104.34 57.54 105.68 55.42 106.98 53.27 108.25 51.08 109.51 48.87 110.72 46.62 111.92 44.35 113.08 42.06 114.21 39.72 115.31 37.37 116.39 34.98 117.44 32.57 118.45 30.12 119.46 27.66 120.42 25.16 121.35 22.63 122.24 20.08 123.13 17.48 123.96 14.88 124.8 12.24 125.58 9.57 126.35 6.86 127.08 4.15 127.79 1.39 128.46 -63.86 0 -1.37 -127.08 -4.11 -126.41 -6.78 -125.7 -9.47 -124.97 -12.1 -124.22 -14.72 -123.42 -17.3 -122.62 -19.86 -121.77 -22.37 -120.91 -24.88 -120.01 -27.36 -119.08 -29.78 -118.14 -32.21 -117.15 -34.6 -116.14 -36.97 -115.11 -39.28 -114.03 -41.58 -112.96 -43.87 -111.84 -46.1 -110.68 -48.33 -109.5 -50.52 -108.29 -52.69 -107.07 -54.8 -105.8 -56.92 -104.53 -59 -103.2 -61.05 -101.85 -63.06 -100.49 -65.06 -99.08 -67.03 -97.65 -68.97 -96.2 -70.88 -94.7 -72.75 -93.2 2.39 -42.49zm-2.39 42.49c-10.99,-13.78 -8.72,-33.89 5.06,-44.88 13.78,-10.99 33.89,-8.72 44.88,5.06l-49.94 39.81zm138.43 -88.2l-90.88 90.88 -45.17 -45.17 90.88 -90.88 47.5 2.62 -2.34 42.55zm-45.17 -45.17c12.47,-12.47 32.7,-12.47 45.17,0 12.47,12.47 12.47,32.7 0,45.17l-45.17 -45.17zm-10568.32 3727.16l63.86 0 0 0 1.41 130.37 4.22 129.68 6.99 128.96 9.75 128.2 12.46 127.44 15.15 126.61 17.81 125.78 20.44 124.91 23.05 124 25.62 123.09 28.15 122.14 30.68 121.15 33.16 120.16 35.62 119.11 38.04 118.03 40.44 116.93 42.81 115.82 45.16 114.65 47.46 113.47 49.74 112.26 52.01 111.02 54.22 109.74 56.43 108.44 58.58 107.12 60.73 105.75 62.82 104.37 64.91 102.95 66.95 101.51 68.99 100.02 70.98 98.53 72.93 96.98 74.87 95.44 -49.84 39.93 -75.67 -96.45 -73.73 -98.04 -71.73 -99.59 -69.73 -101.1 -67.69 -102.61 -65.61 -104.07 -63.5 -105.5 -61.39 -106.89 -59.22 -108.28 -57.03 -109.62 -54.81 -110.94 -52.57 -112.22 -50.28 -113.49 -47.98 -114.69 -45.66 -115.91 -43.27 -117.08 -40.88 -118.21 -38.46 -119.33 -36.02 -120.41 -33.52 -121.46 -31 -122.48 -28.47 -123.46 -25.9 -124.43 -23.29 -125.36 -20.66 -126.27 -18.01 -127.14 -15.31 -127.99 -12.59 -128.8 -9.85 -129.58 -7.07 -130.33 -4.26 -131.07 -1.43 -131.75 0 0zm0 0c0,-17.63 14.3,-31.93 31.93,-31.93 17.63,0 31.93,14.3 31.93,31.93l-63.86 0zm1354.11 -3727.16l-45.17 45.17 47.5 -2.62 -74.87 95.44 -72.93 96.98 -70.98 98.52 -68.99 100.03 -66.95 101.51 -64.91 102.95 -62.82 104.36 -60.73 105.76 -58.58 107.11 -56.43 108.44 -54.22 109.74 -52.01 111.02 -49.75 112.27 -47.46 113.46 -45.15 114.65 -42.82 115.81 -40.44 116.94 -38.04 118.03 -35.61 119.11 -33.16 120.15 -30.68 121.16 -28.16 122.13 -25.62 123.09 -23.04 124.01 -20.45 124.91 -17.81 125.78 -15.15 126.61 -12.46 127.43 -9.75 128.21 -6.99 128.96 -4.22 129.68 -1.41 130.37 -63.86 0 1.43 -131.75 4.26 -131.07 7.07 -130.33 9.85 -129.59 12.59 -128.79 15.31 -127.99 18.01 -127.14 20.67 -126.27 23.28 -125.37 25.9 -124.43 28.48 -123.47 31 -122.47 33.52 -121.45 36.01 -120.41 38.46 -119.33 40.88 -118.22 43.28 -117.07 45.65 -115.91 47.98 -114.7 50.29 -113.48 52.57 -112.22 54.81 -110.94 57.03 -109.62 59.22 -108.27 61.39 -106.9 63.5 -105.49 65.61 -104.07 67.69 -102.61 69.73 -101.11 71.73 -99.58 73.73 -98.04 75.67 -96.45 47.5 -2.62zm-47.5 2.62c11.03,-13.75 31.13,-15.98 44.89,-4.95 13.75,11.03 15.98,31.13 4.95,44.89l-49.84 -39.93zm93.21 133.42l-90.87 -90.87 45.17 -45.17 90.87 90.87 2.39 42.49 -47.55 2.68zm45.17 -45.17c12.47,12.47 12.47,32.7 0,45.17 -12.47,12.47 -32.7,12.47 -45.17,0l45.17 -45.17zm-1253.39 3636.29l-63.86 0 0 0 1.39 -128.46 4.15 -127.79 6.86 -127.08 9.57 -126.35 12.24 -125.58 14.88 -124.79 17.48 -123.98 20.08 -123.12 22.63 -122.25 25.16 -121.35 27.66 -120.42 30.13 -119.45 32.56 -118.46 34.99 -117.44 37.36 -116.39 39.73 -115.31 42.06 -114.21 44.35 -113.07 46.62 -111.92 48.87 -110.73 51.08 -109.5 53.26 -108.26 55.43 -106.98 57.54 -105.68 59.66 -104.34 61.73 -102.99 63.76 -101.59 65.78 -100.18 67.77 -98.73 69.73 -97.25 71.65 -95.76 73.55 -94.22 49.94 39.81 -72.75 93.2 -70.88 94.7 -68.97 96.2 -67.03 97.65 -65.06 99.08 -63.06 100.49 -61.05 101.85 -59 103.2 -56.92 104.53 -54.81 105.8 -52.68 107.06 -50.52 108.3 -48.33 109.51 -46.1 110.68 -43.87 111.83 -41.58 112.96 -39.29 114.03 -36.96 115.11 -34.61 116.14 -32.2 117.16 -29.79 118.13 -27.36 119.08 -24.88 120.01 -22.37 120.92 -19.86 121.76 -17.3 122.62 -14.72 123.43 -12.1 124.22 -9.47 124.97 -6.78 125.7 -4.11 126.41 -1.37 127.08 0 0zm0 0c0,17.63 -14.3,31.93 -31.93,31.93 -17.63,0 -31.93,-14.3 -31.93,-31.93l63.86 0zm1253.39 3636.29l-45.17 -45.17 -2.39 42.49 -73.55 -94.22 -71.65 -95.76 -69.73 -97.26 -67.77 -98.72 -65.78 -100.18 -63.76 -101.59 -61.73 -102.99 -59.66 -104.35 -57.54 -105.67 -55.43 -106.98 -53.26 -108.26 -51.08 -109.5 -48.87 -110.73 -46.62 -111.92 -44.35 -113.08 -42.06 -114.2 -39.73 -115.32 -37.36 -116.38 -34.99 -117.44 -32.56 -118.46 -30.13 -119.45 -27.66 -120.42 -25.16 -121.35 -22.63 -122.25 -20.08 -123.13 -17.48 -123.96 -14.88 -124.8 -12.24 -125.58 -9.57 -126.35 -6.86 -127.08 -4.15 -127.79 -1.39 -128.46 63.86 0 1.37 127.08 4.11 126.41 6.78 125.7 9.47 124.97 12.1 124.22 14.72 123.42 17.3 122.62 19.86 121.77 22.37 120.92 24.88 120.01 27.36 119.08 29.79 118.13 32.2 117.16 34.61 116.14 36.96 115.1 39.29 114.04 41.58 112.95 43.87 111.84 46.1 110.68 48.33 109.51 50.52 108.3 52.68 107.06 54.81 105.8 56.92 104.52 59 103.21 61.05 101.85 63.06 100.49 65.06 99.08 67.03 97.64 68.97 96.21 70.88 94.7 72.75 93.2 -2.39 42.49zm2.39 -42.49c10.99,13.78 8.72,33.89 -5.06,44.88 -13.78,10.99 -33.89,8.72 -44.88,-5.06l49.94 -39.81zm-138.43 88.2l90.88 -90.88 45.17 45.17 -90.88 90.88 -47.5 -2.62 2.34 -42.55zm45.17 45.17c-12.47,12.47 -32.7,12.47 -45.17,0 -12.47,-12.47 -12.47,-32.7 0,-45.17l45.17 45.17zm7624.69 -7624.69l-45.17 -45.17 3.18 47.94 -77.95 -58.43 -79.15 -56.91 -80.29 -55.36 -81.45 -53.8 -82.57 -52.21 -83.67 -50.6 -84.75 -48.96 -85.81 -47.31 -86.84 -45.64 -87.86 -43.94 -88.84 -42.22 -89.81 -40.48 -90.76 -38.71 -91.69 -36.94 -92.6 -35.12 -93.48 -33.31 -94.34 -31.44 -95.18 -29.57 -96 -27.69 -96.8 -25.77 -97.55 -23.84 -98.32 -21.86 -99.05 -19.9 -99.77 -17.91 -100.45 -15.86 -101.11 -13.82 -101.77 -11.76 -102.38 -9.68 -103 -7.55 -103.57 -5.43 -104.14 -3.28 -104.67 -1.09 0 -63.86 106 1.11 105.47 3.32 104.9 5.49 104.32 7.65 103.72 9.8 103.09 11.92 102.43 14 101.77 16.08 101.07 18.13 100.35 20.16 99.6 22.16 98.85 24.14 98.06 26.11 97.25 28.05 96.43 29.97 95.58 31.86 94.7 33.73 93.82 35.6 92.89 37.42 91.96 39.21 90.99 41.02 90 42.76 89.01 44.52 87.97 46.23 86.93 47.93 85.85 49.6 84.77 51.26 83.63 52.89 82.51 54.49 81.35 56.08 80.16 57.65 78.97 59.19 3.18 47.94zm-3.18 -47.94c14,10.72 16.67,30.76 5.95,44.77 -10.72,14 -30.76,16.67 -44.77,5.95l38.81 -50.72zm-133.15 93.94l91.16 -91.16 45.17 45.17 -91.16 91.16 -41.9 2.85 -3.27 -48.01zm45.17 45.17c-12.47,12.47 -32.7,12.47 -45.17,0 -12.47,-12.47 -12.47,-32.7 0,-45.17l45.17 45.17zm-2926.43 -967.05l0 -63.86 0 0 102.7 1.07 102.19 3.2 101.64 5.29 101.09 7.37 100.49 9.44 99.9 11.49 99.25 13.49 98.62 15.49 97.95 17.48 97.25 19.42 96.54 21.36 95.82 23.26 95.07 25.17 94.28 27.04 93.49 28.88 92.68 30.72 91.82 32.51 90.97 34.31 90.08 36.07 89.18 37.8 88.26 39.54 87.32 41.24 86.36 42.91 85.37 44.58 84.35 46.21 83.33 47.82 82.27 49.43 81.2 51 80.11 52.54 79 54.09 77.87 55.6 76.71 57.07 -38.63 50.86 -75.69 -56.33 -76.85 -54.86 -77.96 -53.37 -79.06 -51.86 -80.12 -50.32 -81.19 -48.77 -82.23 -47.2 -83.23 -45.6 -84.23 -43.98 -85.22 -42.35 -86.16 -40.7 -87.09 -39 -88 -37.31 -88.88 -35.59 -89.77 -33.85 -90.6 -32.09 -91.44 -30.3 -92.23 -28.5 -93.04 -26.68 -93.79 -24.83 -94.54 -22.96 -95.27 -21.06 -95.98 -19.18 -96.65 -17.24 -97.3 -15.29 -97.95 -13.31 -98.58 -11.33 -99.17 -9.32 -99.75 -7.27 -100.32 -5.23 -100.85 -3.16 -101.38 -1.05 0 0zm0 0c-17.63,0 -31.93,-14.3 -31.93,-31.93 0,-17.63 14.3,-31.93 31.93,-31.93l0 63.86zm-2926.41 967.04l45.17 -45.17 -41.9 -2.85 76.71 -57.07 77.87 -55.6 79 -54.09 80.1 -52.54 81.21 -51 82.27 -49.43 83.32 -47.82 84.36 -46.21 85.37 -44.58 86.35 -42.91 87.32 -41.23 88.25 -39.54 89.19 -37.81 90.09 -36.07 90.96 -34.31 91.84 -32.51 92.66 -30.71 93.5 -28.89 94.27 -27.03 95.07 -25.17 95.81 -23.26 96.55 -21.36 97.25 -19.43 97.95 -17.47 98.62 -15.49 99.25 -13.49 99.89 -11.49 100.5 -9.44 101.09 -7.37 101.63 -5.29 102.19 -3.2 102.7 -1.07 0 63.86 -101.38 1.05 -100.85 3.16 -100.31 5.23 -99.75 7.27 -99.18 9.32 -98.57 11.33 -97.95 13.31 -97.3 15.29 -96.65 17.23 -95.98 19.17 -95.26 21.08 -94.55 22.96 -93.79 24.83 -93.03 26.67 -92.24 28.51 -91.44 30.29 -90.6 32.09 -89.76 33.85 -88.89 35.59 -87.99 37.32 -87.1 39 -86.16 40.69 -85.21 42.35 -84.23 43.98 -83.24 45.6 -82.22 47.2 -81.19 48.77 -80.13 50.32 -79.05 51.86 -77.96 53.37 -76.85 54.86 -75.69 56.33 -41.9 -2.85zm41.9 2.85c-14.04,10.67 -34.08,7.93 -44.75,-6.11 -10.67,-14.04 -7.93,-34.08 6.11,-44.75l38.63 50.86zm-87.89 -139.16l91.15 91.15 -45.17 45.17 -91.15 -91.15 3.18 -47.94 41.99 2.78zm-45.17 45.17c-12.47,-12.47 -12.47,-32.7 0,-45.17 12.47,-12.47 32.7,-12.47 45.17,0l-45.17 45.17zm3017.56 -1067.48l0 63.86 0 0 -104.67 1.09 -104.13 3.28 -103.57 5.43 -103 7.55 -102.38 9.68 -101.77 11.76 -101.11 13.82 -100.45 15.86 -99.76 17.91 -99.05 19.9 -98.32 21.86 -97.56 23.84 -96.79 25.77 -96 27.69 -95.18 29.57 -94.34 31.44 -93.48 33.31 -92.6 35.12 -91.69 36.94 -90.75 38.71 -89.82 40.48 -88.84 42.22 -87.85 43.94 -86.84 45.64 -85.81 47.31 -84.76 48.96 -83.66 50.6 -82.58 52.21 -81.44 53.8 -80.29 55.36 -79.15 56.91 -77.95 58.43 -38.81 -50.72 78.97 -59.19 80.16 -57.65 81.35 -56.08 82.5 -54.49 83.64 -52.89 84.76 -51.26 85.86 -49.6 86.93 -47.93 87.97 -46.23 89 -44.52 90 -42.76 91 -41.02 91.95 -39.21 92.89 -37.42 93.82 -35.6 94.7 -33.73 95.58 -31.86 96.43 -29.97 97.25 -28.05 98.05 -26.11 98.86 -24.14 99.6 -22.16 100.35 -20.16 101.06 -18.13 101.77 -16.08 102.43 -14 103.09 -11.92 103.72 -9.8 104.32 -7.65 104.9 -5.49 105.46 -3.32 106 -1.11 0 0zm0 0c17.63,0 31.93,14.3 31.93,31.93 0,17.63 -14.3,31.93 -31.93,31.93l0 -63.86zm4965 4964.99l-63.86 0 0 0 -1.09 -104.67 -3.28 -104.14 -5.43 -103.57 -7.55 -103 -9.68 -102.38 -11.76 -101.77 -13.82 -101.11 -15.86 -100.45 -17.91 -99.76 -19.9 -99.05 -21.86 -98.33 -23.84 -97.55 -25.77 -96.8 -27.69 -96 -29.57 -95.17 -31.44 -94.35 -33.31 -93.48 -35.12 -92.59 -36.94 -91.69 -38.71 -90.76 -40.48 -89.81 -42.22 -88.84 -43.94 -87.86 -45.64 -86.84 -47.31 -85.81 -48.96 -84.75 -50.6 -83.67 -52.21 -82.57 -53.8 -81.45 -55.36 -80.29 -56.91 -79.15 -58.43 -77.95 50.72 -38.81 59.19 78.97 57.65 80.16 56.08 81.35 54.49 82.51 52.89 83.63 51.26 84.77 49.6 85.85 47.93 86.93 46.23 87.97 44.52 89.01 42.76 90 41.02 90.99 39.21 91.96 37.42 92.89 35.6 93.81 33.73 94.7 31.86 95.59 29.97 96.42 28.05 97.25 26.11 98.06 24.14 98.85 22.16 99.61 20.16 100.35 18.13 101.06 16.08 101.77 14 102.43 11.92 103.09 9.8 103.72 7.65 104.32 5.49 104.9 3.32 105.47 1.11 106 0 0zm0 0c0,17.63 -14.3,31.93 -31.93,31.93 -17.63,0 -31.93,-14.3 -31.93,-31.93l63.86 0zm-1067.46 3017.57l45.17 -45.17 -47.94 3.18 58.43 -77.95 56.91 -79.15 55.35 -80.29 53.8 -81.44 52.21 -82.57 50.6 -83.68 48.96 -84.75 47.31 -85.81 45.64 -86.84 43.94 -87.85 42.22 -88.85 40.48 -89.81 38.71 -90.76 36.94 -91.69 35.12 -92.59 33.31 -93.48 31.44 -94.35 29.56 -95.17 27.69 -96 25.77 -96.8 23.84 -97.56 21.87 -98.31 19.9 -99.05 17.89 -99.77 15.87 -100.44 13.82 -101.12 11.76 -101.77 9.68 -102.38 7.55 -103 5.43 -103.57 3.28 -104.13 1.09 -104.67 63.86 0 -1.11 106 -3.32 105.46 -5.49 104.9 -7.65 104.32 -9.8 103.72 -11.92 103.09 -14 102.44 -16.07 101.76 -18.13 101.07 -20.16 100.35 -22.17 99.61 -24.14 98.84 -26.11 98.06 -28.05 97.25 -29.96 96.42 -31.86 95.59 -33.73 94.7 -35.6 93.81 -37.42 92.89 -39.21 91.96 -41.02 90.99 -42.76 90.01 -44.52 89 -46.23 87.97 -47.93 86.93 -49.6 85.85 -51.26 84.76 -52.89 83.65 -54.49 82.5 -56.07 81.35 -57.65 80.16 -59.19 78.97 -47.94 3.18zm47.94 -3.18c-10.72,14 -30.76,16.67 -44.77,5.95 -14,-10.72 -16.67,-30.76 -5.95,-44.77l50.72 38.81zm-93.95 -133.15l91.17 91.16 -45.17 45.17 -91.17 -91.16 -2.85 -41.9 48.01 -3.27zm-45.17 45.17c-12.47,-12.47 -12.47,-32.7 0,-45.17 12.47,-12.47 32.7,-12.47 45.17,0l-45.17 45.17zm967.04 -2926.41l63.86 0 0 0 -1.07 102.7 -3.2 102.19 -5.29 101.64 -7.37 101.09 -9.44 100.49 -11.49 99.89 -13.49 99.26 -15.49 98.62 -17.48 97.95 -19.43 97.25 -21.35 96.53 -23.26 95.82 -25.17 95.07 -27.04 94.28 -28.88 93.5 -30.72 92.67 -32.51 91.83 -34.3 90.96 -36.08 90.08 -37.8 89.18 -39.54 88.26 -41.23 87.32 -42.91 86.35 -44.59 85.37 -46.21 84.36 -47.81 83.32 -49.43 82.27 -51 81.21 -52.55 80.1 -54.08 79 -55.6 77.87 -57.07 76.71 -50.86 -38.63 56.33 -75.69 54.86 -76.85 53.36 -77.96 51.87 -79.05 50.32 -80.13 48.77 -81.19 47.19 -82.22 45.6 -83.24 43.99 -84.23 42.35 -85.21 40.69 -86.16 39 -87.09 37.31 -88 35.6 -88.88 33.84 -89.76 32.09 -90.61 30.3 -91.43 28.5 -92.24 26.68 -93.04 24.83 -93.79 22.96 -94.54 21.07 -95.26 19.17 -95.98 17.24 -96.65 15.29 -97.3 13.31 -97.96 11.33 -98.57 9.32 -99.17 7.27 -99.75 5.23 -100.32 3.16 -100.85 1.05 -101.38 0 0zm0 0c0,-17.63 14.3,-31.93 31.93,-31.93 17.63,0 31.93,14.3 31.93,31.93l-63.86 0zm-967.05 -2926.41l45.17 45.17 2.85 -41.9 57.07 76.71 55.6 77.87 54.09 79 52.54 80.11 51 81.2 49.43 82.27 47.82 83.33 46.21 84.35 44.58 85.37 42.91 86.35 41.24 87.32 39.54 88.26 37.8 89.18 36.07 90.09 34.31 90.96 32.51 91.83 30.72 92.67 28.88 93.5 27.04 94.27 25.17 95.07 23.26 95.82 21.36 96.54 19.42 97.25 17.48 97.94 15.49 98.62 13.49 99.26 11.49 99.89 9.44 100.5 7.37 101.08 5.29 101.64 3.2 102.19 1.07 102.7 -63.86 0 -1.05 -101.38 -3.16 -100.85 -5.23 -100.32 -7.27 -99.74 -9.32 -99.18 -11.33 -98.57 -13.31 -97.96 -15.29 -97.3 -17.24 -96.64 -19.18 -95.98 -21.06 -95.27 -22.96 -94.54 -24.83 -93.79 -26.68 -93.03 -28.5 -92.24 -30.3 -91.43 -32.09 -90.61 -33.85 -89.76 -35.59 -88.89 -37.31 -88 -39 -87.09 -40.7 -86.16 -42.35 -85.21 -43.98 -84.23 -45.6 -83.23 -47.2 -82.23 -48.77 -81.19 -50.32 -80.12 -51.86 -79.06 -53.37 -77.96 -54.86 -76.85 -56.33 -75.69 2.85 -41.9zm-2.85 41.9c-10.67,-14.04 -7.93,-34.08 6.11,-44.75 14.04,-10.67 34.08,-7.93 44.75,6.11l-50.86 38.63zm139.17 -87.91l-91.16 91.17 -45.17 -45.17 91.16 -91.17 47.94 3.18 -2.78 41.99zm-45.17 -45.17c12.47,-12.47 32.7,-12.47 45.17,0 12.47,12.47 12.47,32.7 0,45.17l-45.17 -45.17zm-8862.51 3017.58l63.86 0 0 0 1.09 104.67 3.28 104.14 5.43 103.57 7.55 103 9.68 102.38 11.76 101.77 13.82 101.11 15.86 100.45 17.91 99.77 19.89 99.05 21.87 98.31 23.84 97.56 25.77 96.8 27.69 96 29.57 95.18 31.44 94.34 33.31 93.48 35.13 92.59 36.92 91.7 38.72 90.75 40.47 89.81 42.23 88.85 43.94 87.85 45.64 86.85 47.3 85.8 48.97 84.76 50.6 83.66 52.21 82.58 53.8 81.44 55.35 80.29 56.91 79.15 58.43 77.95 -50.72 38.81 -59.19 -78.97 -57.65 -80.16 -56.07 -81.35 -54.49 -82.5 -52.89 -83.64 -51.26 -84.76 -49.61 -85.86 -47.92 -86.94 -46.23 -87.96 -44.52 -89 -42.77 -90.01 -41.01 -90.99 -39.22 -91.95 -37.42 -92.9 -35.59 -93.81 -33.73 -94.7 -31.86 -95.58 -29.97 -96.43 -28.05 -97.25 -26.11 -98.06 -24.14 -98.84 -22.17 -99.61 -20.15 -100.35 -18.13 -101.07 -16.08 -101.77 -14 -102.43 -11.92 -103.09 -9.8 -103.72 -7.65 -104.32 -5.49 -104.9 -3.32 -105.47 -1.11 -106 0 0zm0 0c0,-17.63 14.3,-31.93 31.93,-31.93 17.63,0 31.93,14.3 31.93,31.93l-63.86 0zm1067.49 -3017.58l-45.17 45.17 47.94 -3.18 -58.43 77.95 -56.91 79.15 -55.36 80.29 -53.8 81.45 -52.21 82.57 -50.6 83.67 -48.96 84.75 -47.31 85.81 -45.64 86.84 -43.94 87.86 -42.23 88.84 -40.47 89.81 -38.72 90.77 -36.94 91.68 -35.12 92.59 -33.3 93.48 -31.45 94.35 -29.57 95.17 -27.69 96 -25.77 96.8 -23.84 97.55 -21.86 98.33 -19.9 99.05 -17.91 99.76 -15.86 100.45 -13.82 101.11 -11.76 101.77 -9.67 102.38 -7.56 103 -5.43 103.57 -3.28 104.14 -1.09 104.67 -63.86 0 1.11 -106 3.32 -105.47 5.49 -104.9 7.66 -104.32 9.79 -103.72 11.92 -103.09 14 -102.43 16.08 -101.77 18.13 -101.06 20.16 -100.35 22.16 -99.61 24.14 -98.85 26.11 -98.06 28.05 -97.25 29.97 -96.42 31.87 -95.59 33.72 -94.7 35.6 -93.81 37.42 -92.9 39.22 -91.95 41.01 -90.99 42.77 -90 44.52 -89.01 46.23 -87.97 47.93 -86.93 49.6 -85.85 51.26 -84.77 52.89 -83.63 54.49 -82.51 56.08 -81.35 57.65 -80.16 59.19 -78.97 47.94 -3.18zm-47.94 3.18c10.72,-14 30.76,-16.67 44.77,-5.95 14,10.72 16.67,30.76 5.95,44.77l-50.72 -38.81zm93.92 133.14l-91.14 -91.15 45.17 -45.17 91.14 91.15 2.85 41.9 -48.01 3.27zm45.17 -45.17c12.47,12.47 12.47,32.7 0,45.17 -12.47,12.47 -32.7,12.47 -45.17,0l45.17 -45.17zm-967.04 2926.43l-63.86 0 0 0 1.07 -102.7 3.2 -102.19 5.29 -101.64 7.37 -101.09 9.44 -100.49 11.49 -99.9 13.49 -99.25 15.49 -98.63 17.48 -97.94 19.42 -97.25 21.36 -96.54 23.26 -95.82 25.17 -95.07 27.04 -94.28 28.88 -93.5 30.72 -92.67 32.51 -91.83 34.3 -90.96 36.08 -90.09 37.8 -89.18 39.54 -88.26 41.23 -87.32 42.91 -86.35 44.59 -85.37 46.21 -84.36 47.81 -83.32 49.43 -82.27 51 -81.21 52.55 -80.1 54.08 -79 55.6 -77.87 57.07 -76.71 50.86 38.63 -56.33 75.69 -54.86 76.85 -53.36 77.96 -51.87 79.05 -50.32 80.13 -48.77 81.19 -47.19 82.22 -45.6 83.24 -43.99 84.23 -42.35 85.21 -40.69 86.16 -39 87.09 -37.31 88 -35.6 88.89 -33.84 89.76 -32.09 90.61 -30.3 91.43 -28.5 92.24 -26.68 93.04 -24.83 93.79 -22.96 94.54 -21.06 95.27 -19.18 95.98 -17.24 96.64 -15.29 97.31 -13.31 97.95 -11.33 98.58 -9.32 99.17 -7.27 99.75 -5.23 100.32 -3.16 100.85 -1.05 101.38 0 0zm0 0c0,17.63 -14.3,31.93 -31.93,31.93 -17.63,0 -31.93,-14.3 -31.93,-31.93l63.86 0zm967.04 2926.42l-45.17 -45.17 -2.85 41.9 -57.07 -76.71 -55.6 -77.87 -54.08 -79 -52.55 -80.1 -51 -81.21 -49.43 -82.27 -47.81 -83.32 -46.21 -84.36 -44.59 -85.37 -42.91 -86.35 -41.23 -87.32 -39.54 -88.26 -37.8 -89.18 -36.08 -90.09 -34.3 -90.96 -32.51 -91.83 -30.72 -92.67 -28.88 -93.49 -27.04 -94.28 -25.17 -95.07 -23.26 -95.82 -21.36 -96.54 -19.42 -97.25 -17.48 -97.95 -15.49 -98.62 -13.49 -99.25 -11.49 -99.9 -9.44 -100.49 -7.37 -101.09 -5.29 -101.64 -3.2 -102.19 -1.07 -102.7 63.86 0 1.05 101.38 3.16 100.85 5.23 100.32 7.27 99.75 9.32 99.17 11.33 98.58 13.31 97.95 15.29 97.3 17.24 96.65 19.18 95.98 21.06 95.27 22.96 94.54 24.83 93.79 26.68 93.04 28.5 92.23 30.3 91.43 32.09 90.61 33.84 89.76 35.6 88.89 37.31 88 39 87.09 40.69 86.16 42.35 85.21 43.99 84.23 45.6 83.24 47.19 82.22 48.77 81.19 50.32 80.13 51.87 79.05 53.36 77.96 54.86 76.85 56.33 75.69 -2.85 41.9zm2.85 -41.9c10.67,14.04 7.93,34.08 -6.11,44.75 -14.04,10.67 -34.08,7.93 -44.75,-6.11l50.86 -38.63zm-139.17 87.9l91.16 -91.16 45.17 45.17 -91.16 91.16 -47.94 -3.18 2.78 -41.99zm45.17 45.17c-12.47,12.47 -32.7,12.47 -45.17,0 -12.47,-12.47 -12.47,-32.7 0,-45.17l45.17 45.17zm6175.36 -6175.35l-45.17 -45.17 4.09 48.61 -59.6 -41.5 -60.42 -40.41 -61.21 -39.31 -61.99 -38.16 -62.76 -37.03 -63.49 -35.89 -64.24 -34.7 -64.95 -33.53 -65.66 -32.32 -66.36 -31.1 -67.05 -29.89 -67.69 -28.64 -68.36 -27.39 -68.99 -26.11 -69.61 -24.84 -70.21 -23.52 -70.81 -22.21 -71.38 -20.89 -71.94 -19.55 -72.5 -18.19 -73.02 -16.82 -73.55 -15.42 -74.05 -14.02 -74.54 -12.62 -75.03 -11.17 -75.49 -9.75 -75.93 -8.28 -76.38 -6.81 -76.79 -5.32 -77.2 -3.81 -77.6 -2.31 -77.97 -0.77 0 -63.86 79.23 0.79 78.86 2.33 78.46 3.89 78.07 5.4 77.62 6.93 77.19 8.4 76.73 9.91 76.27 11.37 75.78 12.82 75.29 14.26 74.77 15.68 74.24 17.1 73.7 18.49 73.14 19.87 72.56 21.22 71.98 22.59 71.38 23.92 70.77 25.24 70.13 26.55 69.5 27.85 68.83 29.12 68.15 30.37 67.46 31.62 66.76 32.86 66.03 34.09 65.3 35.28 64.55 36.47 63.79 37.65 63 38.8 62.23 39.95 61.4 41.07 60.6 42.2 4.09 48.61zm-4.09 -48.61c14.37,10.21 17.74,30.15 7.53,44.53 -10.21,14.37 -30.15,17.74 -44.53,7.53l37 -52.06zm-132.75 95.12l91.67 -91.67 45.17 45.17 -91.67 91.67 -40.93 3.56 -4.23 -48.72zm45.17 45.17c-12.47,12.47 -32.7,12.47 -45.17,0 -12.47,-12.47 -12.47,-32.7 0,-45.17l45.17 45.17zm-2186.17 -672.78l0 -63.86 0 0 75.92 0.75 75.57 2.21 75.19 3.69 74.8 5.14 74.4 6.56 73.98 7.99 73.56 9.4 73.11 10.8 72.65 12.17 72.18 13.54 71.69 14.89 71.2 16.23 70.69 17.56 70.15 18.88 69.62 20.17 69.06 21.44 68.5 22.72 67.91 23.98 67.31 25.21 66.7 26.45 66.07 27.67 65.44 28.86 64.79 30.05 64.11 31.22 63.43 32.38 62.75 33.52 62.04 34.67 61.32 35.78 60.59 36.88 59.83 37.97 59.08 39.03 58.29 40.11 -36.7 52.28 -57.31 -39.43 -58.08 -38.39 -58.83 -37.34 -59.57 -36.26 -60.28 -35.18 -61 -34.07 -61.69 -32.96 -62.38 -31.84 -63.03 -30.7 -63.69 -29.53 -64.32 -28.38 -64.97 -27.19 -65.56 -26.01 -66.17 -24.79 -66.77 -23.56 -67.32 -22.34 -67.9 -21.08 -68.44 -19.83 -68.97 -18.56 -69.49 -17.26 -69.99 -15.95 -70.5 -14.65 -70.97 -13.3 -71.43 -11.97 -71.87 -10.62 -72.32 -9.24 -72.74 -7.85 -73.16 -6.46 -73.56 -5.04 -73.93 -3.63 -74.31 -2.19 -74.68 -0.73 0 0zm0 0c-17.63,0 -31.93,-14.3 -31.93,-31.93 0,-17.63 14.3,-31.93 31.93,-31.93l0 63.86zm-2186.13 672.76l45.15 -45.17 -40.91 -3.56 58.29 -40.11 59.07 -39.03 59.84 -37.97 60.58 -36.88 61.33 -35.77 62.04 -34.67 62.75 -33.52 63.43 -32.38 64.12 -31.21 64.78 -30.05 65.43 -28.87 66.08 -27.67 66.7 -26.44 67.31 -25.22 67.91 -23.98 68.49 -22.71 69.06 -21.45 69.61 -20.17 70.17 -18.87 70.68 -17.56 71.2 -16.23 71.69 -14.89 72.18 -13.54 72.64 -12.17 73.12 -10.8 73.55 -9.4 73.98 -7.99 74.4 -6.56 74.79 -5.14 75.2 -3.69 75.56 -2.21 75.92 -0.75 0 63.86 -74.68 0.73 -74.3 2.19 -73.94 3.63 -73.55 5.04 -73.16 6.46 -72.74 7.85 -72.31 9.24 -71.88 10.62 -71.42 11.97 -70.97 13.3 -70.5 14.65 -69.98 15.95 -69.5 17.26 -68.97 18.55 -68.43 19.83 -67.9 21.09 -67.33 22.33 -66.75 23.56 -66.17 24.8 -65.58 26 -64.94 27.19 -64.33 28.39 -63.7 29.53 -63.02 30.69 -62.38 31.84 -61.69 32.96 -61 34.07 -60.29 35.17 -59.56 36.26 -58.84 37.34 -58.07 38.39 -57.33 39.43 -40.91 -3.56zm40.91 3.56c-14.43,10.12 -34.36,6.63 -44.48,-7.8 -10.12,-14.43 -6.63,-34.36 7.8,-44.48l36.68 52.28zm-87.45 -140.38l91.68 91.66 -45.15 45.17 -91.68 -91.66 4.08 -48.61 41.07 3.45zm-45.15 45.17c-12.47,-12.47 -12.48,-32.69 -0.01,-45.16 12.47,-12.47 32.69,-12.48 45.16,-0.01l-45.15 45.17zm2277.81 -772.69l0 63.86 0 0 -77.97 0.77 -77.6 2.31 -77.2 3.81 -76.79 5.32 -76.37 6.8 -75.93 8.29 -75.5 9.74 -75.02 11.18 -74.54 12.61 -74.05 14.02 -73.55 15.43 -73.02 16.81 -72.5 18.19 -71.94 19.55 -71.38 20.9 -70.81 22.2 -70.21 23.52 -69.61 24.84 -68.99 26.11 -68.36 27.39 -67.69 28.64 -67.05 29.89 -66.34 31.1 -65.67 32.32 -64.96 33.52 -64.24 34.71 -63.49 35.88 -62.75 37.04 -62 38.16 -61.2 39.3 -60.42 40.41 -59.6 41.51 -37 -52.06 60.6 -42.19 61.4 -41.09 62.22 -39.94 63.01 -38.8 63.78 -37.64 64.55 -36.48 65.3 -35.29 66.04 -34.08 66.75 -32.86 67.46 -31.62 68.15 -30.37 68.83 -29.12 69.5 -27.85 70.13 -26.55 70.77 -25.24 71.38 -23.92 71.98 -22.58 72.56 -21.23 73.14 -19.87 73.7 -18.49 74.24 -17.09 74.77 -15.69 75.29 -14.26 75.78 -12.81 76.26 -11.38 76.74 -9.9 77.19 -8.41 77.63 -6.92 78.05 -5.4 78.46 -3.89 78.86 -2.33 79.23 -0.79 0 0zm0 0c17.63,0 31.93,14.3 31.93,31.93 0,17.63 -14.3,31.93 -31.93,31.93l0 -63.86zm3930.48 3930.47l-63.86 0 0 0 -0.77 -77.97 -2.31 -77.6 -3.81 -77.2 -5.32 -76.79 -6.81 -76.38 -8.28 -75.93 -9.75 -75.49 -11.17 -75.03 -12.62 -74.54 -14.02 -74.05 -15.42 -73.55 -16.82 -73.02 -18.19 -72.5 -19.55 -71.94 -20.89 -71.38 -22.21 -70.81 -23.52 -70.21 -24.84 -69.61 -26.11 -68.98 -27.39 -68.36 -28.64 -67.69 -29.89 -67.05 -31.1 -66.36 -32.32 -65.66 -33.53 -64.95 -34.7 -64.24 -35.89 -63.49 -37.03 -62.76 -38.16 -61.99 -39.31 -61.21 -40.41 -60.42 -41.5 -59.6 52.06 -37 42.2 60.6 41.07 61.4 39.95 62.23 38.8 63 37.65 63.79 36.47 64.55 35.28 65.3 34.09 66.03 32.86 66.76 31.62 67.46 30.37 68.15 29.12 68.83 27.85 69.48 26.55 70.14 25.24 70.77 23.92 71.38 22.59 71.98 21.22 72.56 19.87 73.14 18.49 73.7 17.1 74.24 15.68 74.77 14.26 75.29 12.82 75.78 11.37 76.27 9.91 76.73 8.4 77.19 6.93 77.62 5.4 78.07 3.89 78.46 2.33 78.86 0.79 79.23 0 0zm0 0c0,17.63 -14.3,31.93 -31.93,31.93 -17.63,0 -31.93,-14.3 -31.93,-31.93l63.86 0zm-772.69 2277.82l45.17 -45.17 -48.61 4.09 41.5 -59.6 40.41 -60.41 39.3 -61.22 38.17 -61.99 37.03 -62.75 35.88 -63.5 34.71 -64.23 33.52 -64.96 32.32 -65.67 31.11 -66.35 29.88 -67.04 28.65 -67.7 27.38 -68.35 26.11 -68.99 24.84 -69.61 23.52 -70.21 22.21 -70.81 20.89 -71.38 19.55 -71.94 18.19 -72.5 16.82 -73.02 15.42 -73.55 14.02 -74.05 12.62 -74.54 11.17 -75.03 9.75 -75.49 8.28 -75.93 6.81 -76.38 5.32 -76.78 3.81 -77.2 2.31 -77.6 0.77 -77.97 63.86 0 -0.79 79.23 -2.33 78.86 -3.89 78.46 -5.4 78.06 -6.93 77.62 -8.4 77.19 -9.91 76.73 -11.37 76.27 -12.82 75.78 -14.26 75.29 -15.68 74.77 -17.1 74.24 -18.49 73.7 -19.87 73.14 -21.22 72.56 -22.59 71.98 -23.92 71.38 -25.24 70.77 -26.55 70.13 -27.84 69.49 -29.13 68.84 -30.36 68.14 -31.63 67.47 -32.86 66.75 -34.08 66.04 -35.29 65.29 -36.46 64.56 -37.65 63.78 -38.81 63 -39.94 62.22 -41.07 61.41 -42.2 60.6 -48.61 4.09zm48.61 -4.09c-10.21,14.37 -30.15,17.74 -44.53,7.53 -14.37,-10.21 -17.74,-30.15 -7.53,-44.53l52.06 37zm-95.11 -132.75l91.66 91.67 -45.17 45.17 -91.66 -91.67 -3.56 -40.92 48.72 -4.24zm-45.17 45.17c-12.47,-12.47 -12.47,-32.7 0,-45.17 12.47,-12.47 32.7,-12.47 45.17,0l-45.17 45.17zm672.76 -2186.15l63.86 0 0 0 -0.75 75.92 -2.21 75.57 -3.7 75.19 -5.13 74.8 -6.56 74.4 -7.99 73.98 -9.4 73.56 -10.8 73.11 -12.17 72.65 -13.54 72.18 -14.89 71.68 -16.23 71.2 -17.56 70.68 -18.87 70.17 -20.17 69.61 -21.45 69.06 -22.71 68.49 -23.98 67.91 -25.22 67.31 -26.44 66.7 -27.67 66.08 -28.87 65.44 -30.05 64.77 -31.21 64.12 -32.38 63.43 -33.52 62.75 -34.67 62.04 -35.77 61.33 -36.88 60.58 -37.97 59.83 -39.03 59.08 -40.11 58.28 -52.28 -36.68 39.43 -57.32 38.39 -58.08 37.34 -58.83 36.26 -59.56 35.17 -60.29 34.07 -61 32.96 -61.69 31.84 -62.38 30.69 -63.02 29.53 -63.69 28.39 -64.34 27.19 -64.94 26 -65.58 24.8 -66.17 23.56 -66.75 22.33 -67.33 21.09 -67.9 19.83 -68.43 18.55 -68.97 17.26 -69.5 15.95 -69.99 14.65 -70.49 13.3 -70.97 11.97 -71.43 10.62 -71.87 9.24 -72.32 7.85 -72.74 6.46 -73.16 5.05 -73.56 3.62 -73.93 2.19 -74.31 0.73 -74.68 0 0zm0 0c0,-17.63 14.3,-31.93 31.93,-31.93 17.63,0 31.93,14.3 31.93,31.93l-63.86 0zm-672.78 -2186.16l45.17 45.17 3.56 -40.93 40.11 58.3 39.03 59.07 37.97 59.83 36.88 60.59 35.78 61.32 34.67 62.04 33.52 62.75 32.38 63.43 31.22 64.12 30.05 64.78 28.86 65.45 27.67 66.06 26.45 66.71 25.21 67.31 23.98 67.9 22.72 68.5 21.44 69.06 20.17 69.62 18.88 70.15 17.56 70.69 16.23 71.2 14.89 71.69 13.54 72.18 12.17 72.64 10.8 73.12 9.4 73.55 7.99 73.99 6.56 74.39 5.13 74.8 3.7 75.19 2.21 75.57 0.75 75.92 -63.86 0 -0.73 -74.68 -2.19 -74.31 -3.62 -73.93 -5.05 -73.56 -6.46 -73.15 -7.85 -72.75 -9.24 -72.31 -10.62 -71.88 -11.97 -71.42 -13.3 -70.97 -14.65 -70.5 -15.95 -69.99 -17.26 -69.49 -18.56 -68.97 -19.83 -68.44 -21.08 -67.9 -22.34 -67.32 -23.56 -66.76 -24.79 -66.17 -26.01 -65.57 -27.19 -64.96 -28.38 -64.33 -29.53 -63.68 -30.7 -63.04 -31.84 -62.38 -32.96 -61.69 -34.07 -61 -35.18 -60.28 -36.26 -59.57 -37.34 -58.83 -38.39 -58.07 -39.43 -57.32 3.56 -40.93zm-3.56 40.93c-10.13,-14.43 -6.64,-34.36 7.79,-44.49 14.43,-10.13 34.36,-6.64 44.49,7.79l-52.28 36.7zm140.39 -87.44l-91.67 91.67 -45.17 -45.17 91.67 -91.67 48.61 4.09 -3.45 41.08zm-45.17 -45.17c12.47,-12.47 32.7,-12.47 45.17,0 12.47,12.47 12.47,32.7 0,45.17l-45.17 -45.17zm-7088.24 2277.83l63.86 0 0 0 0.77 77.97 2.31 77.6 3.81 77.2 5.32 76.78 6.81 76.38 8.28 75.94 9.74 75.49 11.18 75.02 12.62 74.55 14.02 74.05 15.42 73.55 16.81 73.02 18.19 72.49 19.55 71.94 20.9 71.39 22.2 70.81 23.53 70.21 24.83 69.61 26.11 68.98 27.39 68.36 28.64 67.7 29.88 67.03 31.12 66.36 32.32 65.67 33.52 64.96 34.7 64.23 35.89 63.5 37.03 62.75 38.16 61.99 39.31 61.21 40.41 60.42 41.5 59.6 -52.06 37 -42.2 -60.6 -41.07 -61.4 -39.95 -62.23 -38.8 -63 -37.65 -63.78 -36.47 -64.56 -35.28 -65.29 -34.08 -66.04 -32.86 -66.75 -31.62 -67.46 -30.38 -68.15 -29.12 -68.84 -27.85 -69.48 -26.55 -70.14 -25.23 -70.77 -23.93 -71.38 -22.58 -71.98 -21.23 -72.57 -19.87 -73.14 -18.49 -73.69 -17.09 -74.24 -15.68 -74.77 -14.26 -75.29 -12.82 -75.79 -11.38 -76.26 -9.9 -76.73 -8.4 -77.2 -6.93 -77.62 -5.4 -78.06 -3.89 -78.46 -2.33 -78.86 -0.79 -79.23 0 0zm0 0c0,-17.63 14.3,-31.93 31.93,-31.93 17.63,0 31.93,14.3 31.93,31.93l-63.86 0zm772.69 -2277.84l-45.17 45.17 48.61 -4.09 -41.5 59.6 -40.41 60.42 -39.31 61.21 -38.16 61.99 -37.03 62.76 -35.89 63.49 -34.7 64.24 -33.52 64.95 -32.32 65.67 -31.12 66.35 -29.88 67.05 -28.64 67.69 -27.39 68.36 -26.11 68.99 -24.83 69.61 -23.53 70.21 -22.2 70.81 -20.9 71.38 -19.55 71.94 -18.19 72.5 -16.81 73.02 -15.42 73.55 -14.02 74.05 -12.62 74.54 -11.18 75.03 -9.74 75.49 -8.28 75.93 -6.81 76.38 -5.32 76.79 -3.81 77.2 -2.31 77.6 -0.77 77.97 -63.86 0 0.79 -79.23 2.33 -78.86 3.89 -78.46 5.4 -78.07 6.93 -77.62 8.4 -77.19 9.9 -76.73 11.38 -76.27 12.82 -75.78 14.26 -75.29 15.68 -74.77 17.09 -74.24 18.49 -73.7 19.87 -73.14 21.23 -72.56 22.58 -71.98 23.93 -71.38 25.23 -70.77 26.55 -70.13 27.85 -69.5 29.12 -68.83 30.38 -68.15 31.62 -67.47 32.86 -66.75 34.08 -66.03 35.28 -65.3 36.47 -64.55 37.65 -63.79 38.8 -63 39.95 -62.23 41.07 -61.4 42.2 -60.6 48.61 -4.09zm-48.61 4.09c10.21,-14.37 30.15,-17.74 44.53,-7.53 14.37,10.21 17.74,30.15 7.53,44.53l-52.06 -37zm95.12 132.75l-91.67 -91.67 45.17 -45.17 91.67 91.67 3.56 40.92 -48.72 4.24zm45.17 -45.17c12.47,12.47 12.47,32.7 0,45.17 -12.47,12.47 -32.7,12.47 -45.17,0l45.17 -45.17zm-672.77 2186.17l-63.86 0 0 0 0.75 -75.92 2.21 -75.57 3.7 -75.19 5.13 -74.8 6.56 -74.4 7.99 -73.98 9.4 -73.56 10.8 -73.11 12.17 -72.65 13.55 -72.18 14.88 -71.68 16.24 -71.2 17.56 -70.68 18.87 -70.17 20.17 -69.62 21.44 -69.06 22.72 -68.49 23.98 -67.91 25.22 -67.31 26.44 -66.69 27.67 -66.08 28.86 -65.44 30.05 -64.79 31.22 -64.11 32.38 -63.43 33.52 -62.75 34.67 -62.04 35.77 -61.33 36.88 -60.58 37.97 -59.84 39.03 -59.07 40.11 -58.29 52.28 36.68 -39.43 57.33 -38.39 58.07 -37.34 58.84 -36.26 59.56 -35.17 60.29 -34.07 61 -32.96 61.69 -31.84 62.38 -30.7 63.03 -29.53 63.69 -28.38 64.32 -27.19 64.96 -26 65.57 -24.8 66.17 -23.56 66.77 -22.34 67.33 -21.08 67.88 -19.83 68.44 -18.55 68.97 -17.26 69.5 -15.96 69.99 -14.64 70.49 -13.31 70.97 -11.97 71.43 -10.62 71.87 -9.24 72.32 -7.85 72.74 -6.46 73.16 -5.05 73.56 -3.62 73.93 -2.19 74.31 -0.73 74.68 0 0zm0 0c0,17.63 -14.3,31.93 -31.93,31.93 -17.63,0 -31.93,-14.3 -31.93,-31.93l63.86 0zm672.77 2186.17l-45.17 -45.17 -3.56 40.92 -40.11 -58.29 -39.03 -59.07 -37.97 -59.83 -36.88 -60.59 -35.78 -61.32 -34.66 -62.04 -33.53 -62.75 -32.37 -63.44 -31.22 -64.11 -30.05 -64.78 -28.86 -65.45 -27.67 -66.06 -26.45 -66.71 -25.21 -67.31 -23.99 -67.9 -22.71 -68.5 -21.45 -69.06 -20.17 -69.62 -18.87 -70.16 -17.56 -70.68 -16.23 -71.2 -14.89 -71.69 -13.54 -72.18 -12.17 -72.65 -10.8 -73.11 -9.4 -73.56 -7.99 -73.98 -6.56 -74.4 -5.13 -74.8 -3.7 -75.19 -2.21 -75.57 -0.75 -75.92 63.86 0 0.73 74.68 2.19 74.31 3.62 73.93 5.05 73.56 6.46 73.16 7.85 72.74 9.24 72.32 10.62 71.87 11.97 71.43 13.3 70.97 14.65 70.5 15.95 69.99 17.26 69.48 18.55 68.98 19.83 68.44 21.09 67.9 22.33 67.32 23.57 66.76 24.79 66.17 26.01 65.57 27.19 64.96 28.38 64.33 29.53 63.68 30.7 63.05 31.83 62.37 32.97 61.69 34.06 61 35.18 60.28 36.26 59.57 37.34 58.83 38.39 58.07 39.43 57.33 -3.56 40.92zm3.56 -40.92c10.12,14.43 6.63,34.36 -7.8,44.48 -14.43,10.12 -34.36,6.63 -44.48,-7.8l52.28 -36.68zm-140.39 87.42l91.67 -91.66 45.17 45.17 -91.67 91.66 -48.61 -4.09 3.45 -41.08zm45.17 45.17c-12.47,12.47 -32.7,12.47 -45.17,0 -12.47,-12.47 -12.47,-32.7 0,-45.17l45.17 45.17z"/>
  </g>
  <path class="fil2" d="M5621.89 6386.25c-21.58,-45.57 -47.96,-74.34 -69.55,-131.89 -19.19,-50.37 -28.78,-112.72 -26.38,-172.67 7.19,-155.87 59.95,-182.25 107.91,-275.78 -50.37,-23.98 -91.14,-59.95 -146.3,-93.53 -163.08,-100.72 -292.57,-158.28 -482.03,-225.43 -230.23,-81.54 -546.79,-134.3 -812.99,-124.7 -340.54,-2.41 -700.26,103.12 -966.47,230.23 -211.05,100.72 -573.17,323.74 -702.67,498.81 47.96,110.32 472.45,383.71 611.53,458.06 541.99,280.59 1177.5,359.72 1774.66,182.25 237.43,-69.55 518.02,-196.67 712.28,-345.35z"/>
  <path class="fil2" d="M6295.77 5808.29c23.98,45.57 52.76,74.35 76.74,131.9 98.32,239.81 -47.96,393.3 -69.55,453.25 110.32,59.96 158.28,110.32 328.56,191.86 419.68,203.84 863.35,287.79 1345.37,225.43 309.37,-38.37 568.37,-131.89 810.59,-256.6 179.86,-91.14 532.39,-328.56 611.53,-458.06 -100.72,-151.09 -503.62,-405.3 -697.88,-496.43 -201.45,-95.93 -712.26,-268.59 -971.26,-227.83 -189.45,-40.76 -647.52,59.96 -815.39,119.92 -232.61,81.53 -443.66,191.85 -618.72,316.56z"/>
  <path class="fil3" d="M5713.01 7705.25c-201.45,-81.53 -352.53,-191.85 -616.33,-191.85 -573.17,0 -851.35,484.43 -333.34,705.07 333.34,143.9 640.32,31.17 937.68,-122.3 93.53,-47.97 172.67,-100.73 259.01,-146.3 45.57,14.38 119.91,64.75 163.09,88.73 55.15,31.17 103.12,59.95 160.68,86.33 107.91,50.37 235.02,107.92 364.51,139.1 290.19,69.55 630.73,-38.37 745.85,-220.63 88.73,-139.1 33.57,-261.41 -50.37,-350.14 -76.74,-79.14 -201.45,-136.7 -340.54,-163.08 -405.29,-76.74 -664.3,148.68 -789,175.06 21.58,-21.57 76.74,-93.53 103.12,-124.7 105.52,-122.3 501.22,-570.76 549.18,-661.9 86.34,-155.87 -21.57,-244.61 -175.06,-244.61l-1448.51 -0.01c-155.88,0 -256.61,81.54 -179.87,239.81 40.77,81.54 155.88,203.85 213.44,271 88.73,110.32 374.12,426.88 436.47,520.41z"/>
  <path class="fil4" d="M6708.27 4321.41c-2.41,2.4 -4.79,4.78 -7.2,7.19l-127.1 124.7c-247.02,242.22 -585.16,913.71 -575.57,1213.48 62.36,4.79 117.51,21.58 167.88,47.96 55.15,28.78 88.73,74.35 127.1,95.94 175.07,-122.31 386.12,-232.63 621.13,-316.56 170.28,-59.95 628.33,-160.68 815.39,-119.91 9.6,-21.58 191.86,-237.42 256.61,-335.75 242.22,-369.33 431.67,-911.31 405.29,-1374.17 -350.13,0 -695.47,71.95 -978.45,196.66 -139.1,59.95 -266.2,124.7 -381.31,203.84 -93.53,57.57 -263.81,179.89 -323.75,256.62z"/>
  <path class="fil4" d="M4190.17 5367.02c266.2,-12 582.75,40.76 812.98,124.7 189.45,67.15 318.96,127.1 482.04,225.43 55.15,33.57 95.93,67.15 146.29,93.53 81.54,-67.16 134.3,-129.51 292.58,-146.3 -4.79,-206.24 -170.28,-599.54 -256.61,-755.43 -64.74,-117.51 -129.5,-215.83 -201.45,-311.77 -79.14,-100.72 -158.27,-182.26 -237.42,-268.59 -134.3,-107.92 -153.49,-143.9 -330.95,-261.4 -383.71,-249.42 -892.12,-419.69 -1376.56,-405.3 26.39,189.45 -4.79,247.02 57.56,530.01 83.93,383.7 278.19,810.58 541.99,1091.17 23.98,26.38 52.76,57.55 69.55,83.94z"/>
  <path class="fil5" d="M5346.09 3637.93c-21.58,105.52 -57.56,208.64 -79.14,323.75 -23.98,127.1 -23.98,235.02 -38.37,364.51 79.15,86.34 160.68,167.88 237.42,268.6 74.35,95.93 136.71,191.85 201.45,311.77 83.94,155.87 251.81,551.58 256.61,755.43l74.34 0c-9.59,-299.77 328.56,-971.27 575.57,-1213.49l127.1 -124.7c2.41,-2.4 4.79,-4.79 7.2,-7.19 -12,-7.19 -16.79,11.99 -21.58,-62.36 -23.98,-354.94 -76.74,-565.97 -227.83,-901.71 -81.54,-184.67 -366.92,-628.33 -498.81,-700.27 -167.88,124.7 -390.9,482.04 -498.82,702.67 -40.78,88.73 -76.76,213.44 -115.13,282.99z"/>
  <path class="fil3" d="M5633.87 5808.29c-47.96,93.53 -100.72,119.92 -107.91,275.79 -2.41,59.95 7.19,119.91 26.38,172.66 21.58,55.16 47.96,83.93 69.55,131.9 40.77,26.38 69.55,64.75 131.89,100.72 124.7,67.15 278.19,71.94 402.89,9.59 64.75,-31.17 98.33,-74.34 146.3,-105.52 21.58,-57.55 167.87,-211.04 69.55,-453.25 -23.98,-57.56 -52.76,-86.34 -76.74,-131.9 -38.37,-21.57 -71.94,-67.15 -127.11,-95.93 -50.36,-26.38 -105.52,-43.17 -167.87,-47.96l-74.35 0c-158.27,16.79 -211.03,76.75 -292.57,143.9z"/>
  <path class="fil0" d="M3844.49 8739.05l92.03 0 -3.98 -13.63c-10.99,-37.12 -19.98,-68.74 -26.99,-94.87 -7,-26.14 -11.27,-42.99 -12.78,-50.56l-2.27 -11.37c-3.04,20.84 -17.04,73.09 -42.04,156.79l-3.98 13.63zm136.34 148.84l-23.29 -78.4 -134.07 0 -23.29 78.4 -91.46 0 127.82 -382.89 110.22 0 127.82 382.89 -93.74 0zm220.99 -4.54l-111.35 -283.48 90.33 0 31.24 89.76c7.95,23.1 14.48,42.99 19.6,59.65 5.11,16.66 8.24,27.65 9.38,32.95l1.7 7.95c4.18,-15.15 14.39,-48.66 30.68,-100.55l28.41 -89.76 85.21 0 -103.96 279.51c-29.92,80.66 -75.56,121.01 -136.92,121.01 -11.74,0 -22.34,-0.95 -31.81,-2.85l0 -65.89c6.06,1.51 12.51,2.27 19.32,2.27 31.43,0 54.16,-16.85 68.17,-50.56zm400.51 -283.48l82.94 0 0 288.03 -82.94 0 0 -46.02c-15.15,32.19 -44.31,48.29 -87.49,48.29 -29.54,0 -52.55,-8.24 -69.03,-24.72 -16.47,-16.47 -24.71,-40.8 -24.71,-72.99l0 -192.59 82.94 0 0 173.84c0,33.7 14.77,50.56 44.32,50.56 35.98,0 53.97,-24.05 53.97,-72.15l0 -152.25zm332.9 8.53l0 71.01c-20.07,-11.74 -43.55,-17.61 -70.44,-17.61 -9.85,0 -17.43,1.99 -22.73,5.96 -5.29,3.98 -7.95,9 -7.95,15.05 0,3.42 0.95,6.63 2.85,9.66 1.89,3.04 5.01,5.87 9.37,8.52 4.35,2.66 8.52,5.02 12.5,7.1 3.98,2.09 9.47,4.64 16.48,7.67 7,3.04 12.59,5.68 16.76,7.96 17.42,9.09 31.43,19.6 42.04,31.52 10.6,11.94 15.9,27.18 15.9,45.74 0,28.41 -10.23,50.37 -30.67,65.9 -20.46,15.52 -47.53,23.29 -81.24,23.29 -34.84,0 -64,-5.87 -87.49,-17.62l0 -73.85c26.14,18.18 53.79,27.27 82.94,27.27 20.84,0 31.25,-6.62 31.25,-19.88 0,-3.42 -0.95,-6.63 -2.85,-9.66 -1.89,-3.04 -5.11,-5.87 -9.66,-8.52 -4.54,-2.66 -8.71,-4.83 -12.5,-6.53 -3.79,-1.71 -9.28,-4.08 -16.48,-7.1 -7.19,-3.04 -12.68,-5.49 -16.47,-7.39 -38.25,-18.18 -57.38,-45.45 -57.38,-81.8 0,-28.03 10.71,-49.8 32.1,-65.33 21.39,-15.53 48,-23.29 79.81,-23.29 29.54,0 54.17,3.98 73.85,11.94zm148.84 -122.14l0 162.48c14.76,-34.47 43.55,-51.7 86.35,-51.7 28.03,0 50.84,8.9 68.46,26.7 17.61,17.8 26.41,44.7 26.41,80.67l0 183.49 -82.94 0 0 -170.43c0,-16.66 -4.17,-29.73 -12.5,-39.2 -8.33,-9.47 -19.13,-14.2 -32.38,-14.2 -5.68,0 -11.08,0.86 -16.19,2.56 -5.11,1.71 -10.7,4.73 -16.76,9.09 -6.05,4.35 -10.98,11.75 -14.77,22.16 -3.79,10.41 -5.67,23 -5.67,37.77l0 152.25 -82.94 0 0 -401.64 82.94 0zm329.5 113.61l0 44.89c15.9,-31.81 42.98,-47.72 81.23,-47.72 40.52,0 67.41,18.18 80.67,54.53 6.43,-17.04 17.23,-30.39 32.38,-40.05 15.14,-9.66 32.94,-14.48 53.4,-14.48 28.41,0 50.85,9 67.32,26.99 16.47,17.99 24.71,44.41 24.71,79.25l0 184.63 -82.94 0 0 -171c0,-16.28 -3.22,-29.17 -9.66,-38.63 -6.43,-9.47 -15.71,-14.2 -27.84,-14.2 -12.87,0 -24.33,5.21 -34.37,15.63 -10.04,10.41 -15.05,29.07 -15.05,55.95l0 152.25 -82.94 0 0 -171c0,-16.28 -3.22,-29.17 -9.66,-38.63 -6.44,-9.47 -15.72,-14.2 -27.84,-14.2 -12.87,0 -24.33,5.21 -34.37,15.63 -10.04,10.41 -15.05,29.07 -15.05,55.95l0 152.25 -82.94 0 0 -288.03 82.94 0zm547.64 169.87l-26.7 0c-14.01,0 -24.81,3.03 -32.38,9.09 -7.58,6.05 -11.37,13.82 -11.37,23.29 0,19.31 11.18,28.97 33.52,28.97 11.74,0 20.83,-3.6 27.27,-10.79 6.43,-7.2 9.66,-17.05 9.66,-29.54l0 -21.01zm-134.64 -81.24l0 -74.42c22.72,-12.87 55.48,-19.32 98.28,-19.32 40.9,0 71.38,8.81 91.46,26.42 20.07,17.61 30.1,44.98 30.1,82.09l0 184.63 -81.23 0 0 -35.22c-12.12,24.61 -35.98,36.93 -71.58,36.93 -28.03,0 -49.89,-7.96 -65.61,-23.86 -15.72,-15.91 -23.57,-35.79 -23.57,-59.65 0,-27.65 10.13,-49.14 30.39,-64.48 20.26,-15.34 50.27,-23 90.04,-23l36.36 0 0 -19.89c0,-24.24 -16.1,-36.36 -48.29,-36.36 -31.05,0 -59.84,8.71 -86.35,26.13zm368.13 -88.62l0 48.86c7.19,-15.91 18.27,-28.51 33.23,-37.78 14.96,-9.28 32.85,-13.91 53.69,-13.91 29.53,0 52.64,8.81 69.31,26.42 16.66,17.61 24.99,43.46 24.99,77.54l0 186.91 -82.94 0 0 -171.57c0,-17.04 -3.98,-30.01 -11.93,-38.91 -7.95,-8.9 -19.13,-13.35 -33.52,-13.35 -15.14,0 -27.74,5.97 -37.77,17.9 -10.04,11.94 -15.05,29.82 -15.05,53.69l0 152.25 -82.94 0 0 -288.03 82.94 0zm478.9 218.15l46.02 0c43.18,0 64.76,-14.77 64.76,-44.31 0,-29.54 -21.39,-44.32 -64.19,-44.32l-46.58 0 0 88.62zm0 -243.14l0 85.78 32.38 0c22.72,0 39.86,-4.17 51.41,-12.5 11.56,-8.33 17.33,-19.32 17.33,-32.95 0,-26.89 -18.18,-40.33 -54.53,-40.33l-46.58 0zm-87.49 -69.88l148.84 0c42.04,0 74.04,9.94 96.01,29.82 21.96,19.89 32.95,45.17 32.95,75.84 0,20.08 -5.3,37.69 -15.91,52.84 -10.6,15.14 -24.42,25.37 -41.47,30.67 44.32,13.25 66.47,43.18 66.47,89.76 0,30.29 -10.89,55.19 -32.67,74.7 -21.77,19.51 -51.41,29.26 -88.9,29.26l-165.31 0 0 -382.89zm423.8 -18.75l0 162.48c14.76,-34.47 43.55,-51.7 86.35,-51.7 28.03,0 50.84,8.9 68.46,26.7 17.61,17.8 26.41,44.7 26.41,80.67l0 183.49 -82.94 0 0 -170.43c0,-16.66 -4.17,-29.73 -12.5,-39.2 -8.33,-9.47 -19.13,-14.2 -32.38,-14.2 -5.68,0 -11.08,0.86 -16.19,2.56 -5.11,1.71 -10.7,4.73 -16.76,9.09 -6.05,4.35 -10.98,11.75 -14.77,22.16 -3.79,10.41 -5.67,23 -5.67,37.77l0 152.25 -82.94 0 0 -401.64 82.94 0zm389.15 283.48l-26.7 0c-14.01,0 -24.81,3.03 -32.38,9.09 -7.58,6.05 -11.37,13.82 -11.37,23.29 0,19.31 11.18,28.97 33.52,28.97 11.74,0 20.83,-3.6 27.27,-10.79 6.43,-7.2 9.66,-17.05 9.66,-29.54l0 -21.01zm-134.64 -81.24l0 -74.42c22.72,-12.87 55.48,-19.32 98.28,-19.32 40.9,0 71.38,8.81 91.46,26.42 20.07,17.61 30.1,44.98 30.1,82.09l0 184.63 -81.23 0 0 -35.22c-12.12,24.61 -35.98,36.93 -71.58,36.93 -28.03,0 -49.89,-7.96 -65.61,-23.86 -15.72,-15.91 -23.57,-35.79 -23.57,-59.65 0,-27.65 10.13,-49.14 30.39,-64.48 20.26,-15.34 50.27,-23 90.04,-23l36.36 0 0 -19.89c0,-24.24 -16.1,-36.36 -48.29,-36.36 -31.05,0 -59.84,8.71 -86.35,26.13zm367.56 -88.62l0 53.41c5.3,-16.67 14.1,-30.01 26.42,-40.05 12.31,-10.04 26.6,-15.05 42.89,-15.05 9.09,0 16.28,0.76 21.58,2.27l0 78.4c-9.09,-4.17 -19.51,-6.24 -31.24,-6.24 -17.8,0 -32.19,6.53 -43.18,19.6 -10.98,13.06 -16.47,30.39 -16.47,51.98l0 143.73 -82.94 0 0.57 -288.03 82.37 0zm270.41 169.87l-26.7 0c-14.01,0 -24.81,3.03 -32.38,9.09 -7.58,6.05 -11.37,13.82 -11.37,23.29 0,19.31 11.18,28.97 33.52,28.97 11.74,0 20.83,-3.6 27.27,-10.79 6.43,-7.2 9.66,-17.05 9.66,-29.54l0 -21.01zm-134.64 -81.24l0 -74.42c22.72,-12.87 55.48,-19.32 98.28,-19.32 40.9,0 71.38,8.81 91.46,26.42 20.07,17.61 30.1,44.98 30.1,82.09l0 184.63 -81.23 0 0 -35.22c-12.12,24.61 -35.98,36.93 -71.58,36.93 -28.03,0 -49.89,-7.96 -65.61,-23.86 -15.72,-15.91 -23.57,-35.79 -23.57,-59.65 0,-27.65 10.13,-49.14 30.39,-64.48 20.26,-15.34 50.27,-23 90.04,-23l36.36 0 0 -19.89c0,-24.24 -16.1,-36.36 -48.29,-36.36 -31.05,0 -59.84,8.71 -86.35,26.13zm381.19 -27.84l0 132.37c0,10.22 2.94,17.99 8.8,23.28 5.87,5.3 13.54,7.96 23.01,7.96 15.15,0 28.6,-3.79 40.33,-11.37l0 68.74c-14.01,6.06 -32.95,9.09 -56.8,9.09 -65.52,0 -98.28,-32.76 -98.28,-98.27l0 -131.8 -41.47 0 0 -60.79 41.47 0 0 -68.17 82.94 0 0 68.17 67.03 0 0 60.79 -67.03 0z"/>
  <path class="fil6" d="M2800.37 9699.81l72.85 0c64.52,0 114.3,-20.12 149.34,-60.36 35.04,-40.24 52.56,-97.14 52.56,-170.69 0,-62.45 -17.69,-112.58 -53.08,-150.39 -35.38,-37.8 -85.34,-56.71 -149.86,-56.71l-71.81 0 0 438.15zm-164.43 -570.32l241.45 0c105.46,0 191.84,32.43 259.14,97.3 67.3,64.87 100.95,145.53 100.95,241.97 0,112.4 -33.13,200.86 -99.39,265.39 -66.26,64.52 -153.86,96.78 -262.79,96.78l-239.36 0 0 -701.45zm710.82 701.45l0 -527.65 151.95 0 0 527.65 -151.95 0zm13.52 -618.2c-17.34,-17.34 -26.02,-38.15 -26.02,-62.44 0,-24.29 8.68,-45.11 26.02,-62.45 17.35,-17.35 38.16,-26.02 62.45,-26.02 24.29,0 45.11,8.67 62.45,26.02 17.35,17.34 26.02,38.15 26.02,62.45 0,24.28 -8.67,45.1 -26.02,62.44 -17.34,17.35 -38.15,26.02 -62.45,26.02 -24.28,0 -45.1,-8.67 -62.45,-26.02zm502.68 479.79c32.61,0 58.11,-12.32 76.5,-36.95 18.39,-24.63 27.58,-54.3 27.58,-88.98 0,-94.37 -34.34,-141.54 -103.03,-141.54 -30.53,0 -54.46,11.8 -71.81,35.39 -17.35,23.58 -26.02,56.19 -26.02,97.82 0,43.71 8.33,77.02 24.98,99.91 16.65,22.89 40.58,34.35 71.8,34.35zm104.08 -389.24l150.91 0 0 476.65c0,84.65 -25.33,148.31 -75.98,190.98 -50.64,42.67 -114.13,64 -190.45,64 -74.24,0 -139.11,-13.18 -194.62,-39.55l0 -155.06c48.57,38.85 108.24,58.28 179.01,58.28 45.8,0 79.1,-9.72 99.91,-29.15 20.82,-19.43 31.22,-49.95 31.22,-91.58l0 -35.39c-30.52,47.18 -79.1,70.78 -145.7,70.78 -58.29,0 -108.41,-21.51 -150.39,-64.53 -41.98,-43.01 -62.96,-106.84 -62.96,-191.49 0,-74.93 20.3,-136.86 60.89,-185.77 40.58,-48.92 93.84,-73.37 159.75,-73.37 62.45,0 108.58,24.97 138.41,74.93l0 -69.73zm275.8 527.65l0 -527.65 151.95 0 0 527.65 -151.95 0zm13.52 -618.2c-17.34,-17.34 -26.02,-38.15 -26.02,-62.44 0,-24.29 8.68,-45.11 26.02,-62.45 17.35,-17.35 38.16,-26.02 62.45,-26.02 24.29,0 45.11,8.67 62.45,26.02 17.35,17.34 26.02,38.15 26.02,62.45 0,24.28 -8.67,45.1 -26.02,62.44 -17.34,17.35 -38.15,26.02 -62.45,26.02 -24.28,0 -45.1,-8.67 -62.45,-26.02zm444.4 201.91l0 242.49c0,18.73 5.38,32.96 16.13,42.67 10.76,9.72 24.81,14.57 42.15,14.57 27.76,0 52.39,-6.94 73.89,-20.82l0 125.93c-25.67,11.1 -60.36,16.65 -104.07,16.65 -120.04,0 -180.06,-60.02 -180.06,-180.05l0 -241.45 -75.97 0 0 -111.36 75.97 0 0 -124.89 151.95 0 0 124.89 122.81 0 0 111.36 -122.81 0zm487.07 199.82l-48.92 0c-25.67,0 -45.45,5.55 -59.32,16.65 -13.87,11.1 -20.82,25.32 -20.82,42.67 0,35.39 20.47,53.08 61.41,53.08 21.5,0 38.15,-6.59 49.95,-19.78 11.8,-13.17 17.7,-31.22 17.7,-54.12l0 -38.5zm-246.66 -148.82l0 -136.34c41.63,-23.59 101.64,-35.39 180.05,-35.39 74.93,0 130.78,16.13 167.56,48.39 36.77,32.26 55.15,82.39 55.15,150.39l0 338.24 -148.82 0 0 -64.52c-22.2,45.1 -65.91,67.65 -131.13,67.65 -51.34,0 -91.41,-14.57 -120.21,-43.72 -28.8,-29.14 -43.19,-65.56 -43.19,-109.28 0,-50.64 18.56,-90.02 55.68,-118.12 37.12,-28.1 92.1,-42.15 164.95,-42.15l66.61 0 0 -36.43c0,-44.41 -29.49,-66.61 -88.46,-66.61 -56.89,0 -109.63,15.96 -158.19,47.88zm527.65 365.29l0 -735.8 151.95 0 0 735.8 -151.95 0zm531.82 0l60.36 -701.45 175.89 0 97.82 253.94c16.66,42.32 30.88,81.17 42.68,116.56 11.79,35.39 19.43,60.37 22.89,74.93l5.2 20.82c11.1,-45.79 35.39,-116.56 72.85,-212.31l98.87 -253.94 175.88 0 72.85 701.45 -160.28 0 -26.02 -271.64 -13.52 -205.03c-18.04,52.04 -43.02,120.39 -74.93,205.03l-98.87 264.35 -94.71 0 -97.83 -264.35c-15.96,-43.02 -29.48,-81.52 -40.59,-115.52 -11.1,-33.99 -18.38,-57.58 -21.85,-70.77l-5.2 -18.74c0,49.26 -3.12,117.61 -9.36,205.03l-21.86 271.64 -160.27 0zm944.99 0l0 -527.65 151.95 0 0 527.65 -151.95 0zm13.52 -618.2c-17.34,-17.34 -26.02,-38.15 -26.02,-62.44 0,-24.29 8.68,-45.11 26.02,-62.45 17.35,-17.35 38.16,-26.02 62.45,-26.02 24.29,0 45.11,8.67 62.45,26.02 17.35,17.34 26.02,38.15 26.02,62.45 0,24.28 -8.67,45.1 -26.02,62.44 -17.34,17.35 -38.15,26.02 -62.45,26.02 -24.28,0 -45.1,-8.67 -62.45,-26.02zm601.55 106.16l0 130.08c-36.77,-21.5 -79.78,-32.26 -129.05,-32.26 -18.04,0 -31.92,3.65 -41.63,10.93 -9.72,7.29 -14.57,16.48 -14.57,27.59 0,6.24 1.74,12.14 5.2,17.69 3.47,5.55 9.19,10.76 17.17,15.61 7.98,4.85 15.61,9.19 22.9,13 7.28,3.82 17.34,8.5 30.17,14.05 12.83,5.55 23.07,10.41 30.7,14.57 31.92,16.65 57.59,35.91 77.02,57.76 19.43,21.85 29.14,49.78 29.14,83.78 0,52.04 -18.73,92.28 -56.19,120.73 -37.47,28.45 -87.08,42.67 -148.83,42.67 -63.82,0 -117.25,-10.76 -160.27,-32.26l0 -135.3c47.87,33.3 98.52,49.95 151.95,49.95 38.15,0 57.24,-12.14 57.24,-36.43 0,-6.24 -1.74,-12.14 -5.2,-17.69 -3.48,-5.55 -9.37,-10.76 -17.7,-15.61 -8.32,-4.85 -15.95,-8.85 -22.89,-11.97 -6.94,-3.13 -17,-7.46 -30.18,-13.01 -13.18,-5.54 -23.24,-10.06 -30.18,-13.52 -70.08,-33.31 -105.11,-83.26 -105.11,-149.87 0,-51.34 19.61,-91.23 58.81,-119.68 39.19,-28.46 87.94,-42.68 146.22,-42.68 54.13,0 99.22,7.29 135.3,21.86zm453.76 0l0 130.08c-36.77,-21.5 -79.78,-32.26 -129.05,-32.26 -18.04,0 -31.92,3.65 -41.63,10.93 -9.72,7.29 -14.57,16.48 -14.57,27.59 0,6.24 1.74,12.14 5.2,17.69 3.47,5.55 9.19,10.76 17.17,15.61 7.98,4.85 15.61,9.19 22.9,13 7.28,3.82 17.34,8.5 30.17,14.05 12.83,5.55 23.07,10.41 30.7,14.57 31.92,16.65 57.59,35.91 77.02,57.76 19.43,21.85 29.14,49.78 29.14,83.78 0,52.04 -18.73,92.28 -56.19,120.73 -37.47,28.45 -87.08,42.67 -148.83,42.67 -63.82,0 -117.25,-10.76 -160.27,-32.26l0 -135.3c47.87,33.3 98.52,49.95 151.95,49.95 38.15,0 57.24,-12.14 57.24,-36.43 0,-6.24 -1.74,-12.14 -5.2,-17.69 -3.48,-5.55 -9.37,-10.76 -17.7,-15.61 -8.32,-4.85 -15.95,-8.85 -22.89,-11.97 -6.94,-3.13 -17,-7.46 -30.18,-13.01 -13.18,-5.54 -23.24,-10.06 -30.18,-13.52 -70.08,-33.31 -105.11,-83.26 -105.11,-149.87 0,-51.34 19.61,-91.23 58.81,-119.68 39.19,-28.46 87.94,-42.68 146.22,-42.68 54.13,0 99.22,7.29 135.3,21.86zm125.93 512.04l0 -527.65 151.95 0 0 527.65 -151.95 0zm13.52 -618.2c-17.34,-17.34 -26.02,-38.15 -26.02,-62.44 0,-24.29 8.68,-45.11 26.02,-62.45 17.35,-17.35 38.16,-26.02 62.45,-26.02 24.29,0 45.11,8.67 62.45,26.02 17.35,17.34 26.02,38.15 26.02,62.45 0,24.28 -8.67,45.1 -26.02,62.44 -17.34,17.35 -38.15,26.02 -62.45,26.02 -24.28,0 -45.1,-8.67 -62.45,-26.02zm501.64 626.53c-82.56,0 -146.4,-24.81 -191.49,-74.42 -45.1,-49.6 -67.65,-113.26 -67.65,-190.97 0,-81.17 23.59,-147.95 70.77,-200.34 47.18,-52.39 109.98,-78.58 188.38,-78.58 81.87,0 145.36,25.33 190.45,75.97 45.11,50.65 67.65,115.18 67.65,193.58 0,79.79 -22.72,145.54 -68.17,197.22 -45.45,51.69 -108.75,77.54 -189.93,77.54zm-1.04 -424.62c-33.3,0 -58.28,14.22 -74.93,42.67 -16.65,28.45 -24.98,65.22 -24.98,110.32 0,45.1 8.5,82.04 25.5,110.84 17,28.8 42.5,43.19 76.49,43.19 33.31,0 58.11,-14.04 74.42,-42.15 16.3,-28.1 24.45,-64.69 24.45,-109.8 0,-103.38 -33.65,-155.06 -100.95,-155.06zm509.96 -111.36l0 89.5c13.18,-29.15 33.47,-52.22 60.88,-69.22 27.41,-16.99 60.19,-25.49 98.35,-25.49 54.12,0 96.44,16.13 126.97,48.39 30.53,32.26 45.8,79.61 45.8,142.06l0 342.4 -151.95 0 0 -314.3c0,-31.22 -7.28,-54.98 -21.85,-71.28 -14.57,-16.31 -35.04,-24.46 -61.41,-24.46 -27.75,0 -50.82,10.93 -69.21,32.78 -18.39,21.85 -27.58,54.64 -27.58,98.35l0 278.92 -151.95 0 0 -527.65 151.95 0z"/>
  <path class="fil7" d="M1582.02 10802.73l0 -1.1c0,-25.63 -6.41,-45.68 -19.13,-60.13 -12.72,-14.46 -30.29,-25.9 -52.44,-34.32 6.86,-3.67 13.35,-8.06 19.31,-13.18 6.04,-5.12 11.26,-11.07 15.83,-17.84 4.57,-6.77 8.14,-14.37 10.89,-22.79 2.75,-8.42 4.13,-18.12 4.13,-29.11l0 -1.1c0,-30.38 -11.26,-54.53 -33.68,-72.47 -22.51,-17.94 -53.45,-26.91 -92.89,-26.91l-178.19 0 0 384.37 182.58 0c21.5,0 41.18,-2.2 58.93,-6.59 17.67,-4.39 32.86,-10.98 45.49,-19.77 12.54,-8.78 22.24,-19.77 29.02,-32.94 6.77,-13.18 10.16,-28.56 10.16,-46.12zm-104.88 -164.18c0,14.27 -5.48,24.62 -16.47,31.02 -10.98,6.4 -25.81,9.61 -44.48,9.61l-77.98 0 0 -81.26 83.47 0c17.94,0 31.66,3.39 41.18,10.16 9.52,6.77 14.27,16.56 14.27,29.37l0 1.1zm21.41 153.75c0,14.27 -5.3,24.8 -15.92,31.57 -10.62,6.77 -25.26,10.16 -43.93,10.16l-100.49 0 0 -84.56 97.74 0c21.96,0 37.88,3.76 47.77,11.26 9.89,7.5 14.82,17.66 14.82,30.47l0 1.1zm412.39 115.86l0 -294.32 -83.47 0 0 163.81c0,19.68 -4.66,34.6 -14,44.57 -9.33,10.07 -22.05,15.1 -38.15,15.1 -16.11,0 -28.56,-5.03 -37.35,-15.1 -8.78,-9.97 -13.17,-24.89 -13.17,-44.57l0 -163.81 -83.47 0 0 190.54c0,34.04 8.7,60.77 26.09,80.16 17.39,19.41 42,29.11 73.85,29.11 10.62,0 20.14,-1.29 28.56,-3.85 8.42,-2.66 16.1,-6.13 23.06,-10.53 6.95,-4.48 13.26,-9.52 18.95,-15.19 5.67,-5.76 10.89,-11.72 15.64,-18.03l0 42.1 83.47 0zm164.17 -326.72l0 -74.12 -87.86 0 0 74.12 87.86 0zm-2.19 326.72l0 -294.32 -83.47 0 0 294.32 83.47 0zm165.83 0l0 -400.84 -83.47 0 0 400.84 83.47 0zm374.48 0l0 -400.84 -83.46 0 0 144.6c-9.88,-11.63 -22.05,-21.78 -36.52,-30.48 -14.46,-8.69 -32.85,-13.08 -55.18,-13.08 -17.57,0 -34.41,3.3 -50.52,9.89 -16.1,6.58 -30.29,16.38 -42.55,29.37 -12.27,12.99 -22.15,28.92 -29.65,47.77 -7.5,18.85 -11.26,40.54 -11.26,65.06l0 1.1c0,24.53 3.76,46.22 11.26,65.07 7.5,18.86 17.48,34.78 29.92,47.77 12.45,12.99 26.73,22.78 42.83,29.37 16.11,6.59 32.77,9.89 49.97,9.89 21.96,0 40.17,-4.48 54.63,-13.36 14.46,-8.88 26.82,-20.23 37.07,-34.05l0 41.92 83.46 0zm-82.36 -146.61c0,12.18 -1.92,23.34 -5.76,33.41 -3.85,10.16 -8.97,18.85 -15.38,25.99 -6.4,7.23 -13.9,12.72 -22.51,16.66 -8.6,3.84 -17.84,5.76 -27.73,5.76 -9.88,0 -19.13,-1.93 -27.73,-5.76 -8.6,-3.94 -16.2,-9.43 -22.79,-16.66 -6.58,-7.14 -11.81,-15.83 -15.64,-25.99 -3.85,-10.07 -5.77,-21.23 -5.77,-33.41l0 -1.1c0,-12.54 1.93,-23.79 5.77,-33.67 3.84,-9.98 9.06,-18.58 15.64,-25.72 6.59,-7.23 14.19,-12.72 22.79,-16.66 8.6,-3.85 17.85,-5.76 27.73,-5.76 9.89,0 19.13,1.92 27.73,5.76 8.61,3.94 16.11,9.43 22.51,16.66 6.41,7.14 11.54,15.83 15.38,25.99 3.85,10.07 5.76,21.23 5.76,33.4l0 1.1zm246.55 -180.1l0 -74.12 -87.86 0 0 74.12 87.86 0zm-2.19 326.72l0 -294.32 -83.47 0 0 294.32 83.47 0zm348.13 0l0 -190.54c0,-34.04 -8.7,-60.77 -26.09,-80.16 -17.39,-19.41 -42,-29.11 -73.85,-29.11 -10.62,0 -20.14,1.28 -28.56,3.85 -8.42,2.66 -16.1,6.13 -23.06,10.53 -6.95,4.48 -13.26,9.52 -18.94,15.19 -5.68,5.76 -10.9,11.71 -15.65,18.03l0 -42.1 -83.47 0 0 294.32 83.47 0 0 -163.81c0,-19.68 4.66,-34.6 14,-44.57 9.33,-10.07 22.05,-15.1 38.15,-15.1 16.11,0 28.56,5.03 37.35,15.1 8.78,9.97 13.17,24.89 13.17,44.57l0 163.81 83.47 0zm368.44 -66.44l0 -227.88 -83.46 0 0 38.43c-11.35,-12.45 -24.34,-22.87 -38.98,-31.29 -14.64,-8.42 -33.31,-12.63 -56.01,-12.63 -16.84,0 -33.13,3.02 -48.87,9.06 -15.74,6.04 -29.64,14.92 -41.73,26.64 -12.08,11.71 -21.78,26.08 -29.11,43.1 -7.32,17.02 -10.98,36.52 -10.98,58.48l0 1.1c0,21.96 3.57,41.46 10.71,58.48 7.14,17.02 16.75,31.39 28.83,43.11 12.09,11.71 25.99,20.59 41.73,26.63 15.74,6.04 32.22,9.06 49.42,9.06 22.33,0 40.82,-4.2 55.46,-12.62 14.64,-8.42 28.19,-20.14 40.63,-35.15l0 14.28c0,26.35 -6.86,46.3 -20.6,59.85 -13.72,13.54 -34.87,20.32 -63.41,20.32 -19.77,0 -37.44,-2.38 -52.99,-7.14 -15.56,-4.75 -31.03,-11.35 -46.4,-19.77l-28.56 62.6c18.67,9.89 38.99,17.49 60.96,22.79 21.96,5.3 45.03,7.96 69.19,7.96 27.45,0 51.43,-2.93 71.92,-8.79 20.51,-5.85 37.62,-15 51.35,-27.45 13.72,-12.45 23.97,-28.47 30.74,-48.05 6.77,-19.59 10.16,-43.29 10.16,-71.11zm-82.36 -95c0,9.89 -1.83,19.04 -5.49,27.46 -3.66,8.42 -8.69,15.65 -15.1,21.68 -6.4,6.04 -13.99,10.71 -22.78,14 -8.79,3.3 -18.31,4.94 -28.56,4.94 -20.5,0 -37.53,-6.22 -51.07,-18.67 -13.54,-12.45 -20.32,-28.93 -20.32,-49.42l0 -1.1c0,-9.88 1.84,-19.04 5.49,-27.46 3.67,-8.42 8.7,-15.65 15.1,-21.68 6.4,-6.04 13.91,-10.71 22.51,-14 8.6,-3.3 18.03,-4.94 28.28,-4.94 10.25,0 19.77,1.65 28.56,4.94 8.79,3.3 16.38,7.96 22.78,14 6.41,6.03 11.45,13.26 15.1,21.68 3.67,8.42 5.49,17.58 5.49,27.46l0 1.1zm684.74 -30.75l0 -1.1c0,-27.09 -4.94,-52.25 -14.83,-75.5 -9.88,-23.24 -23.88,-43.47 -42.01,-60.68 -18.12,-17.2 -39.71,-30.65 -64.79,-40.35 -25.07,-9.71 -52.62,-14.55 -82.64,-14.55l-149.9 0 0 384.37 149.9 0c30.02,0 57.57,-4.94 82.64,-14.82 25.08,-9.89 46.67,-23.43 64.79,-40.64 18.13,-17.2 32.13,-37.52 42.01,-60.95 9.89,-23.43 14.83,-48.68 14.83,-75.78zm-88.41 1.1c0,17.21 -2.84,32.77 -8.51,46.67 -5.67,13.91 -13.54,26 -23.61,36.25 -10.07,10.25 -22.23,18.12 -36.52,23.61 -14.27,5.48 -30.01,8.23 -47.22,8.23l-65.34 0 0 -231.72 65.34 0c17.21,0 32.95,2.85 47.22,8.52 14.28,5.67 26.45,13.63 36.52,23.88 10.07,10.25 17.94,22.51 23.61,36.79 5.67,14.28 8.51,29.83 8.51,46.67l0 1.1zm244.35 -135.63l0 -74.12 -87.86 0 0 74.12 87.86 0zm-2.19 326.72l0 -294.32 -83.47 0 0 294.32 83.47 0zm374.48 -66.44l0 -227.88 -83.46 0 0 38.43c-11.35,-12.45 -24.34,-22.87 -38.98,-31.29 -14.64,-8.42 -33.31,-12.63 -56.01,-12.63 -16.84,0 -33.13,3.02 -48.87,9.06 -15.74,6.04 -29.64,14.92 -41.73,26.64 -12.08,11.71 -21.78,26.08 -29.11,43.1 -7.32,17.02 -10.98,36.52 -10.98,58.48l0 1.1c0,21.96 3.57,41.46 10.71,58.48 7.14,17.02 16.75,31.39 28.83,43.11 12.09,11.71 25.99,20.59 41.73,26.63 15.74,6.04 32.22,9.06 49.42,9.06 22.33,0 40.82,-4.2 55.46,-12.62 14.64,-8.42 28.19,-20.14 40.63,-35.15l0 14.28c0,26.35 -6.86,46.3 -20.6,59.85 -13.72,13.54 -34.87,20.32 -63.41,20.32 -19.77,0 -37.44,-2.38 -52.99,-7.14 -15.56,-4.75 -31.03,-11.35 -46.4,-19.77l-28.56 62.6c18.67,9.89 38.99,17.49 60.96,22.79 21.96,5.3 45.03,7.96 69.19,7.96 27.45,0 51.43,-2.93 71.92,-8.79 20.51,-5.85 37.62,-15 51.35,-27.45 13.72,-12.45 23.97,-28.47 30.74,-48.05 6.77,-19.59 10.16,-43.29 10.16,-71.11zm-82.36 -95c0,9.89 -1.83,19.04 -5.49,27.46 -3.66,8.42 -8.69,15.65 -15.1,21.68 -6.4,6.04 -13.99,10.71 -22.78,14 -8.79,3.3 -18.31,4.94 -28.56,4.94 -20.5,0 -37.53,-6.22 -51.07,-18.67 -13.54,-12.45 -20.32,-28.93 -20.32,-49.42l0 -1.1c0,-9.88 1.84,-19.04 5.49,-27.46 3.67,-8.42 8.7,-15.65 15.1,-21.68 6.4,-6.04 13.91,-10.71 22.51,-14 8.6,-3.3 18.03,-4.94 28.28,-4.94 10.25,0 19.77,1.65 28.56,4.94 8.79,3.3 16.38,7.96 22.78,14 6.41,6.03 11.45,13.26 15.1,21.68 3.67,8.42 5.49,17.58 5.49,27.46l0 1.1zm246.55 -165.28l0 -74.12 -87.86 0 0 74.12 87.86 0zm-2.19 326.72l0 -294.32 -83.47 0 0 294.32 83.47 0zm243.8 -12.08l0 -67c-12.81,6.96 -26.54,10.44 -41.18,10.44 -17.94,0 -26.91,-9.52 -26.91,-28.56l0 -125.74 69.19 0 0 -71.38 -69.19 0 0 -75.23 -83.46 0 0 75.23 -35.15 0 0 71.38 35.15 0 0 139.47c0,17.2 2.11,31.38 6.31,42.55 4.2,11.17 10.07,20.23 17.57,27.19 7.51,6.95 16.48,11.81 26.91,14.54 10.44,2.75 22.05,4.13 34.87,4.13 13.91,0 26.18,-1.56 36.79,-4.67 10.62,-3.11 20.33,-7.22 29.11,-12.35zm315.73 12.08l0 -170.78c0,-39.89 -10.43,-71.02 -31.29,-93.34 -20.87,-22.33 -54.19,-33.5 -99.94,-33.5 -24.89,0 -46.12,2.2 -63.69,6.59 -17.57,4.39 -34.41,10.07 -50.52,17.02l20.87 63.69c13.54,-5.12 26.45,-9.06 38.71,-11.81 12.27,-2.75 26.45,-4.12 42.56,-4.12 20.87,0 36.61,4.57 47.22,13.72 10.61,9.16 15.92,22.51 15.92,40.09l0 4.93c-10.62,-3.66 -21.5,-6.58 -32.67,-8.78 -11.17,-2.2 -24.25,-3.3 -39.26,-3.3 -17.57,0 -33.59,1.92 -48.04,5.76 -14.46,3.85 -26.91,9.61 -37.35,17.3 -10.43,7.69 -18.58,17.39 -24.43,29.11 -5.86,11.71 -8.79,25.62 -8.79,41.73l0 1.1c0,14.64 2.66,27.55 7.96,38.71 5.31,11.16 12.55,20.59 21.69,28.28 9.15,7.68 19.86,13.45 32.12,17.3 12.27,3.84 25.35,5.76 39.26,5.76 20.5,0 37.88,-3.39 52.16,-10.16 14.28,-6.77 26.55,-15.83 36.8,-27.19l0 31.85 80.71 0zm-79.07 -103.78c0,15.37 -5.95,27.82 -17.85,37.34 -11.9,9.52 -27.73,14.27 -47.49,14.27 -13.54,0 -24.53,-3.11 -32.95,-9.33 -8.42,-6.22 -12.62,-15.01 -12.62,-26.36l0 -1.1c0,-13.18 5.12,-23.24 15.37,-30.2 10.25,-6.95 24.34,-10.43 42.28,-10.43 10.25,0 19.86,1 28.83,3.02 8.97,2.02 17.12,4.66 24.44,7.96l0 14.83zm238.32 103.78l0 -400.84 -83.47 0 0 400.84 83.47 0zm577.11 0l0 -384.37 -84.57 0 0 152.1 -155.94 0 0 -152.1 -84.56 0 0 384.37 84.56 0 0 -154.3 155.94 0 0 154.3 84.57 0zm358.01 -138.92l0 -1.1c0,-20.87 -2.84,-40.91 -8.51,-60.13 -5.67,-19.22 -14.45,-36.24 -26.36,-51.07 -11.9,-14.82 -26.81,-26.63 -44.75,-35.41 -17.94,-8.79 -39.17,-13.18 -63.69,-13.18 -21.6,0 -41.28,4.03 -59.03,12.09 -17.76,8.05 -33.04,19.03 -45.86,32.94 -12.81,13.91 -22.78,30.2 -29.92,48.87 -7.14,18.67 -10.71,38.43 -10.71,59.3l0 1.1c0,22.7 3.85,43.29 11.53,61.78 7.69,18.49 18.4,34.5 32.13,48.05 13.72,13.54 30.01,23.97 48.86,31.29 18.86,7.32 39.26,10.99 61.23,10.99 26.73,0 49.97,-4.85 69.74,-14.55 19.77,-9.7 36.61,-23.15 50.52,-40.36l-47.77 -42.28c-11.72,10.62 -23.06,18.3 -34.04,23.06 -10.99,4.75 -23.43,7.14 -37.35,7.14 -18.67,0 -34.32,-4.85 -46.94,-14.55 -12.63,-9.7 -20.95,-24.07 -24.99,-43.11l204.82 0c0.37,-4.03 0.65,-7.5 0.83,-10.43 0.18,-2.94 0.27,-6.41 0.27,-10.44zm-81.26 -31.3l-125.75 0c3.3,-19.03 10.35,-34.22 21.14,-45.58 10.8,-11.35 24.98,-17.02 42.56,-17.02 17.57,0 31.66,5.76 42.28,17.3 10.62,11.53 17.2,26.63 19.77,45.3zm396.45 170.23l0 -170.78c0,-39.89 -10.43,-71.02 -31.29,-93.34 -20.87,-22.33 -54.19,-33.5 -99.94,-33.5 -24.89,0 -46.12,2.2 -63.69,6.59 -17.57,4.39 -34.41,10.07 -50.52,17.02l20.87 63.69c13.54,-5.12 26.45,-9.06 38.71,-11.81 12.27,-2.75 26.45,-4.12 42.56,-4.12 20.87,0 36.61,4.57 47.22,13.72 10.61,9.16 15.92,22.51 15.92,40.09l0 4.93c-10.62,-3.66 -21.5,-6.58 -32.67,-8.78 -11.17,-2.2 -24.25,-3.3 -39.26,-3.3 -17.57,0 -33.59,1.92 -48.04,5.76 -14.46,3.85 -26.91,9.61 -37.35,17.3 -10.43,7.69 -18.58,17.39 -24.43,29.11 -5.86,11.71 -8.79,25.62 -8.79,41.73l0 1.1c0,14.64 2.66,27.55 7.96,38.71 5.31,11.16 12.55,20.59 21.69,28.28 9.15,7.68 19.86,13.45 32.12,17.3 12.27,3.84 25.35,5.76 39.26,5.76 20.5,0 37.88,-3.39 52.16,-10.16 14.28,-6.77 26.55,-15.83 36.8,-27.19l0 31.85 80.71 0zm-79.07 -103.78c0,15.37 -5.95,27.82 -17.85,37.34 -11.9,9.52 -27.73,14.27 -47.49,14.27 -13.54,0 -24.53,-3.11 -32.95,-9.33 -8.42,-6.22 -12.62,-15.01 -12.62,-26.36l0 -1.1c0,-13.18 5.12,-23.24 15.37,-30.2 10.25,-6.95 24.34,-10.43 42.28,-10.43 10.25,0 19.86,1 28.83,3.02 8.97,2.02 17.12,4.66 24.44,7.96l0 14.83zm238.32 103.78l0 -400.84 -83.47 0 0 400.84 83.47 0zm243.8 -12.08l0 -67c-12.81,6.96 -26.54,10.44 -41.18,10.44 -17.94,0 -26.91,-9.52 -26.91,-28.56l0 -125.74 69.19 0 0 -71.38 -69.19 0 0 -75.23 -83.46 0 0 75.23 -35.15 0 0 71.38 35.15 0 0 139.47c0,17.2 2.11,31.38 6.31,42.55 4.2,11.17 10.07,20.23 17.57,27.19 7.51,6.95 16.48,11.81 26.91,14.54 10.44,2.75 22.05,4.13 34.87,4.13 13.91,0 26.18,-1.56 36.79,-4.67 10.62,-3.11 20.33,-7.22 29.11,-12.35zm332.21 12.08l0 -190.54c0,-34.04 -8.7,-60.77 -26.09,-80.16 -17.39,-19.41 -42,-29.11 -73.85,-29.11 -10.62,0 -20.14,1.28 -28.56,3.85 -8.42,2.66 -16.1,6.13 -23.06,10.53 -6.95,4.48 -13.26,9.52 -18.94,15.19 -5.68,5.76 -10.9,11.71 -15.65,18.03l0 -148.62 -83.47 0 0 400.84 83.47 0 0 -163.81c0,-19.68 4.66,-34.6 14,-44.57 9.33,-10.07 22.05,-15.1 38.15,-15.1 16.11,0 28.56,5.03 37.35,15.1 8.78,9.97 13.17,24.89 13.17,44.57l0 163.81 83.47 0zm538.12 0l0 -75.23 -208.66 0 0 -80.71 181.2 0 0 -75.23 -181.2 0 0 -77.97 205.91 0 0 -75.23 -289.37 0 0 384.37 292.12 0zm326.17 -47.22l-48.87 -49.42c-10.25,9.52 -20.59,17.12 -31.02,22.79 -10.44,5.67 -22.6,8.51 -36.52,8.51 -11.35,0 -21.59,-2.11 -30.75,-6.31 -9.15,-4.21 -17.02,-9.98 -23.6,-17.3 -6.59,-7.32 -11.63,-15.92 -15.1,-25.81 -3.49,-9.89 -5.22,-20.5 -5.22,-31.85l0 -1.1c0,-10.98 1.74,-21.31 5.22,-31.02 3.48,-9.7 8.42,-18.21 14.82,-25.53 6.4,-7.32 13.91,-13.08 22.51,-17.3 8.6,-4.2 18.21,-6.31 28.83,-6.31 15.01,0 27.55,2.93 37.62,8.79 10.07,5.85 19.86,13.72 29.37,23.61l51.07 -54.91c-13.91,-15.37 -30.01,-27.46 -48.32,-36.24 -18.3,-8.79 -41.36,-13.18 -69.19,-13.18 -22.69,0 -43.47,4.03 -62.33,12.09 -18.85,8.05 -35.05,19.03 -48.59,32.94 -13.54,13.91 -24.16,30.2 -31.85,48.87 -7.68,18.67 -11.53,38.43 -11.53,59.3l0 1.1c0,20.87 3.85,40.54 11.53,59.03 7.69,18.49 18.31,34.6 31.85,48.32 13.54,13.73 29.74,24.62 48.59,32.67 18.86,8.06 39.26,12.09 61.23,12.09 29.29,0 53.09,-5.03 71.38,-15.1 18.31,-10.07 34.6,-22.97 48.87,-38.71zm358.56 -99.39l0 -1.1c0,-21.22 -4.03,-41.09 -12.08,-59.57 -8.06,-18.49 -19.13,-34.6 -33.22,-48.32 -14.09,-13.73 -30.84,-24.53 -50.25,-32.4 -19.4,-7.87 -40.45,-11.81 -63.14,-11.81 -23.06,0 -44.3,4.03 -63.69,12.09 -19.41,8.05 -36.25,19.03 -50.52,32.94 -14.27,13.91 -25.44,30.11 -33.5,48.6 -8.05,18.48 -12.08,38.34 -12.08,59.57l0 1.1c0,21.23 4.03,41.09 12.08,59.58 8.06,18.49 19.13,34.6 33.23,48.32 14.09,13.73 30.83,24.53 50.24,32.4 19.4,7.87 40.45,11.81 63.14,11.81 23.06,0 44.3,-4.03 63.69,-12.09 19.41,-8.05 36.25,-19.04 50.52,-32.94 14.27,-13.91 25.44,-30.11 33.5,-48.6 8.05,-18.49 12.08,-38.34 12.08,-59.58zm-82.36 1.1c0,10.99 -1.74,21.32 -5.22,31.03 -3.48,9.7 -8.51,18.21 -15.09,25.53 -6.59,7.32 -14.55,13.08 -23.89,17.3 -9.33,4.2 -20.05,6.31 -32.12,6.31 -11.72,0 -22.24,-2.2 -31.57,-6.59 -9.34,-4.39 -17.48,-10.34 -24.44,-17.85 -6.95,-7.5 -12.26,-16.1 -15.92,-25.8 -3.66,-9.71 -5.49,-20.05 -5.49,-31.03l0 -1.1c0,-10.98 1.74,-21.31 5.22,-31.02 3.48,-9.7 8.51,-18.21 15.1,-25.53 6.58,-7.32 14.54,-13.08 23.88,-17.3 9.34,-4.2 20.05,-6.31 32.12,-6.31 11.35,0 21.78,2.2 31.3,6.59 9.52,4.38 17.75,10.34 24.71,17.84 6.95,7.51 12.26,16.11 15.92,25.81 3.66,9.71 5.49,20.05 5.49,31.02l0 1.1zm358.56 56.01l0 -1.1c0,-13.54 -2.75,-25.08 -8.24,-34.6 -5.48,-9.51 -12.45,-17.57 -20.87,-24.15 -8.42,-6.59 -17.94,-12.18 -28.56,-16.75 -10.61,-4.57 -21.04,-8.51 -31.29,-11.81 -8.05,-2.57 -15.65,-5.12 -22.79,-7.69 -7.13,-2.56 -13.45,-5.21 -18.94,-7.96 -5.49,-2.75 -9.89,-5.67 -13.18,-8.79 -3.3,-3.11 -4.94,-6.68 -4.94,-10.71l0 -1.1c0,-5.85 2.57,-10.71 7.69,-14.55 5.12,-3.84 12.81,-5.76 23.06,-5.76 10.62,0 22.88,2.48 36.79,7.41 13.91,4.94 28.2,11.63 42.84,20.05l31.84 -57.65c-16.1,-10.62 -33.77,-18.95 -52.99,-24.99 -19.22,-6.04 -38.16,-9.06 -56.83,-9.06 -15.01,0 -29.02,2.02 -42.01,6.04 -12.99,4.03 -24.34,10.07 -34.04,18.12 -9.7,8.05 -17.39,17.85 -23.06,29.37 -5.67,11.54 -8.51,24.8 -8.51,39.81l0 1.1c0,14.27 2.65,26.36 7.96,36.24 5.3,9.89 12.18,18.22 20.59,24.99 8.42,6.77 17.85,12.27 28.29,16.47 10.43,4.21 20.78,7.78 31.02,10.71 8.05,2.57 15.74,4.94 23.06,7.14 7.32,2.2 13.81,4.48 19.5,6.86 5.67,2.38 10.16,5.21 13.44,8.51 3.3,3.3 4.94,7.14 4.94,11.54l0 1.1c0,6.58 -2.84,11.9 -8.51,15.92 -5.67,4.03 -14.55,6.04 -26.63,6.04 -13.91,0 -28.83,-2.94 -44.76,-8.79 -15.92,-5.85 -31.94,-14.64 -48.04,-26.36l-35.7 54.91c19.78,15.37 40.54,26.63 62.33,33.77 21.78,7.13 43.11,10.71 63.97,10.71 15.74,0 30.47,-1.93 44.2,-5.76 13.73,-3.85 25.72,-9.62 35.97,-17.3 10.26,-7.69 18.22,-17.48 23.89,-29.37 5.67,-11.91 8.51,-26.09 8.51,-42.56zm339.89 -204.82l-86.76 0 -64.24 200.42 -66.99 -200.42 -88.4 0 115.3 295.42c-3.66,7.32 -7.59,12.36 -11.81,15.1 -4.2,2.75 -9.97,4.12 -17.29,4.12 -5.49,0 -11.45,-1.1 -17.85,-3.3 -6.4,-2.2 -12.36,-4.94 -17.85,-8.23l-28 60.4c10.61,6.22 21.77,11.17 33.49,14.82 11.72,3.67 25.26,5.49 40.63,5.49 12.45,0 23.43,-1.47 32.95,-4.39 9.52,-2.93 18.03,-7.68 25.53,-14.27 7.51,-6.59 14.37,-15.1 20.6,-25.53 6.22,-10.44 12.08,-23.16 17.57,-38.16l113.11 -301.46zm265.22 204.82l0 -1.1c0,-13.54 -2.75,-25.08 -8.24,-34.6 -5.48,-9.51 -12.45,-17.57 -20.87,-24.15 -8.42,-6.59 -17.94,-12.18 -28.56,-16.75 -10.61,-4.57 -21.04,-8.51 -31.29,-11.81 -8.05,-2.57 -15.65,-5.12 -22.79,-7.69 -7.13,-2.56 -13.45,-5.21 -18.94,-7.96 -5.49,-2.75 -9.89,-5.67 -13.18,-8.79 -3.3,-3.11 -4.94,-6.68 -4.94,-10.71l0 -1.1c0,-5.85 2.57,-10.71 7.69,-14.55 5.12,-3.84 12.81,-5.76 23.06,-5.76 10.62,0 22.88,2.48 36.79,7.41 13.91,4.94 28.2,11.63 42.84,20.05l31.84 -57.65c-16.1,-10.62 -33.77,-18.95 -52.99,-24.99 -19.22,-6.04 -38.16,-9.06 -56.83,-9.06 -15.01,0 -29.02,2.02 -42.01,6.04 -12.99,4.03 -24.34,10.07 -34.04,18.12 -9.7,8.05 -17.39,17.85 -23.06,29.37 -5.67,11.54 -8.51,24.8 -8.51,39.81l0 1.1c0,14.27 2.65,26.36 7.96,36.24 5.3,9.89 12.18,18.22 20.59,24.99 8.42,6.77 17.85,12.27 28.29,16.47 10.43,4.21 20.78,7.78 31.02,10.71 8.05,2.57 15.74,4.94 23.06,7.14 7.32,2.2 13.81,4.48 19.5,6.86 5.67,2.38 10.16,5.21 13.44,8.51 3.3,3.3 4.94,7.14 4.94,11.54l0 1.1c0,6.58 -2.84,11.9 -8.51,15.92 -5.67,4.03 -14.55,6.04 -26.63,6.04 -13.91,0 -28.83,-2.94 -44.76,-8.79 -15.92,-5.85 -31.94,-14.64 -48.04,-26.36l-35.7 54.91c19.78,15.37 40.54,26.63 62.33,33.77 21.78,7.13 43.11,10.71 63.97,10.71 15.74,0 30.47,-1.93 44.2,-5.76 13.73,-3.85 25.72,-9.62 35.97,-17.3 10.26,-7.69 18.22,-17.48 23.89,-29.37 5.67,-11.91 8.51,-26.09 8.51,-42.56zm225.13 77.43l0 -67c-12.81,6.96 -26.54,10.44 -41.18,10.44 -17.94,0 -26.91,-9.52 -26.91,-28.56l0 -125.74 69.19 0 0 -71.38 -69.19 0 0 -75.23 -83.46 0 0 75.23 -35.15 0 0 71.38 35.15 0 0 139.47c0,17.2 2.11,31.38 6.31,42.55 4.2,11.17 10.07,20.23 17.57,27.19 7.51,6.95 16.48,11.81 26.91,14.54 10.44,2.75 22.05,4.13 34.87,4.13 13.91,0 26.18,-1.56 36.79,-4.67 10.62,-3.11 20.33,-7.22 29.11,-12.35zm337.15 -126.85l0 -1.1c0,-20.87 -2.84,-40.91 -8.51,-60.13 -5.67,-19.22 -14.45,-36.24 -26.36,-51.07 -11.9,-14.82 -26.81,-26.63 -44.75,-35.41 -17.94,-8.79 -39.17,-13.18 -63.69,-13.18 -21.6,0 -41.28,4.03 -59.03,12.09 -17.76,8.05 -33.04,19.03 -45.86,32.94 -12.81,13.91 -22.78,30.2 -29.92,48.87 -7.14,18.67 -10.71,38.43 -10.71,59.3l0 1.1c0,22.7 3.85,43.29 11.53,61.78 7.69,18.49 18.4,34.5 32.13,48.05 13.72,13.54 30.01,23.97 48.86,31.29 18.86,7.32 39.26,10.99 61.23,10.99 26.73,0 49.97,-4.85 69.74,-14.55 19.77,-9.7 36.61,-23.15 50.52,-40.36l-47.77 -42.28c-11.72,10.62 -23.06,18.3 -34.04,23.06 -10.99,4.75 -23.43,7.14 -37.35,7.14 -18.67,0 -34.32,-4.85 -46.94,-14.55 -12.63,-9.7 -20.95,-24.07 -24.99,-43.11l204.82 0c0.37,-4.03 0.65,-7.5 0.83,-10.43 0.18,-2.94 0.27,-6.41 0.27,-10.44zm-81.26 -31.3l-125.75 0c3.3,-19.03 10.35,-34.22 21.14,-45.58 10.8,-11.35 24.98,-17.02 42.56,-17.02 17.57,0 31.66,5.76 42.28,17.3 10.62,11.53 17.2,26.63 19.77,45.3zm592.48 170.23l0 -191.64c0,-35.51 -8.79,-62.42 -26.36,-80.71 -17.57,-18.31 -41.92,-27.46 -73.03,-27.46 -20.14,0 -38.07,3.94 -53.82,11.9 -15.74,7.96 -30.01,19.59 -42.83,35.15 -7.68,-15.19 -18.58,-26.73 -32.67,-34.87 -14.09,-8.15 -30.84,-12.18 -50.24,-12.18 -10.62,0 -20.23,1.28 -28.83,3.85 -8.61,2.66 -16.38,6.13 -23.34,10.53 -6.95,4.48 -13.26,9.52 -18.94,15.19 -5.68,5.76 -10.9,11.71 -15.65,18.03l0 -42.1 -83.47 0 0 294.32 83.47 0 0 -163.81c0,-19.68 4.48,-34.6 13.45,-44.57 8.97,-10.07 21.32,-15.1 37.07,-15.1 15.73,0 27.82,5.03 36.24,15.1 8.42,9.97 12.62,24.89 12.62,44.57l0 163.81 83.47 0 0 -163.81c0,-19.68 4.48,-34.6 13.45,-44.57 8.97,-10.07 21.32,-15.1 37.07,-15.1 15.73,0 27.82,5.03 36.24,15.1 8.42,9.97 12.62,24.89 12.62,44.57l0 163.81 83.47 0z"/>
 </g>
</svg>
